<?xml version="1.0" encoding="utf-8"?>
<!-- Generator: Adobe Illustrator 24.2.1, SVG Export Plug-In . SVG Version: 6.00 Build 0)  -->
<svg version="1.1" id="Layer_1" xmlns="http://www.w3.org/2000/svg" xmlns:xlink="http://www.w3.org/1999/xlink" x="0px" y="0px"
	 viewBox="0 0 1418.66 487.8" style="enable-background:new 0 0 1418.66 487.8;" xml:space="preserve">
<style type="text/css">
	.st0{fill:#DB5790;}
	.st1{fill:#6E7072;}
</style>
<g>
	<g>
		<path class="st0" d="M261.31,108.16h-3.04c-37.89,0-63.52,27.51-89.94,50.59c-10.04,8.77-22.84,16.53-36.46,11.28
			c-15-5.78-26.06-17.95-34.97-30.9c-9.99-14.5-18.71-30.03-27.44-45.3c-1.13-1.98-2.25-3.96-3.37-5.95
			c-0.34-0.62-1.05-1.46-1.21-2.16c0,0,14.53,66.09,42.41,131.57c27.91,65.46,71.58,111.55,86.72,124.26l2.12,1.54
			c-17.32-24.64-27.86-54.44-28.68-86.74C165.87,192.75,203.4,134.07,261.31,108.16"/>
		<path class="st0" d="M338.25,361.81c-68.35,1.7-125.17-52.34-126.88-120.71c-1.21-48.22,25.38-90.59,65.11-112.03
			c-50.12,20.04-85.06,69.48-83.62,126.52c1.8,73.34,62.87,131.29,136.35,129.49c73.44-1.86,131.55-62.8,129.7-136.16
			c-0.04-1.04-0.17-2.06-0.25-3.09C454.74,309.23,402.95,360.19,338.25,361.81"/>
		<path class="st0" d="M103.65,105.71c0-20.74,16.83-37.58,37.6-37.58c20.76,0,37.58,16.85,37.58,37.58
			c0,20.78-16.82,37.62-37.58,37.62C120.48,143.33,103.65,126.49,103.65,105.71"/>
		<path class="st0" d="M261.91,177.5c-2.54,0-4.2,0.66-5.05,2.07c-0.85,1.4-1.25,3.93-1.25,7.62v8.2c0,4.25,0.45,6.94,1.41,8.06
			c0.96,1.11,3.22,1.65,6.86,1.65c3.59,0,8.56-0.43,14.92-1.35l2.19,13.29c-2.76,0.55-6.31,1.08-10.59,1.55
			c-4.28,0.48-7.8,0.72-10.53,0.72c-4.43,0-8.08-0.55-10.96-1.68c-2.84-1.08-5.04-2.88-6.63-5.37c-1.52-2.53-2.61-5.42-3.17-8.7
			c-0.58-3.27-0.86-7.5-0.86-12.64c0-5.11,0.28-9.27,0.86-12.51c0.56-3.25,1.65-6.05,3.27-8.49c1.59-2.42,3.88-4.15,6.83-5.21
			c2.94-1.04,6.69-1.57,11.27-1.57c7.54,0,13,1.14,16.37,3.42c3.41,2.3,5.1,6.43,5.1,12.44v7.71h-15.63v-6.01
			C266.32,178.55,264.87,177.5,261.91,177.5"/>
		<path class="st0" d="M318.49,218.12l-2.25-9.62h-15.77l-2.03,9.62h-16.97l12.16-43.46c1.09-4.07,2.73-6.9,4.93-8.5
			c2.17-1.6,5.59-2.4,10.19-2.4c4.58,0,7.95,0.78,10.06,2.36c2.14,1.58,3.79,4.44,4.93,8.54l12.55,43.46H318.49z M307.02,180.37
			l-3.8,16.28h10.69l-3.82-16.1c-0.5-1.68-1-2.51-1.54-2.51C308.01,178.04,307.49,178.84,307.02,180.37"/>
		<path class="st0" d="M367.56,218.12l-8.12-16.8c-1.58-0.12-2.81-0.2-3.71-0.32v17.13h-16.17V174.4c0-3.25,0.96-5.8,2.91-7.64
			c1.89-1.84,4.73-2.78,8.54-2.78h11.68c7.25,0,12.47,1.67,15.65,4.98c3.18,3.3,4.78,8.03,4.78,14.1c0,7.65-2.76,12.93-8.27,15.88
			c0.94,1.73,2.56,4.76,4.87,9.08c2.3,4.31,4.15,7.67,5.55,10.09H367.56z M362.21,176.85h-5.06c-0.95,0-1.43,0.47-1.43,1.34v10.73
			c2.01,0.16,3.89,0.23,5.61,0.23c2.15,0,3.6-0.41,4.33-1.24c0.74-0.85,1.1-2.26,1.1-4.28v-1.25
			C366.76,178.7,365.24,176.85,362.21,176.85"/>
		<path class="st0" d="M389.89,207.7v-33.3c0-3.35,0.98-5.94,2.95-7.72c1.97-1.8,4.8-2.69,8.49-2.69h26.41v13.26h-19.47
			c-0.53,0-0.9,0.09-1.09,0.29c-0.24,0.17-0.35,0.51-0.35,1.08v5.82h18.88v12.86h-18.88v6.24c0,0.54,0.11,0.88,0.35,1.06
			c0.19,0.19,0.56,0.28,1.09,0.28h19.47v13.26h-26.41c-3.69,0-6.52-0.87-8.49-2.68C390.87,213.65,389.89,211.07,389.89,207.7"/>
		<path class="st0" d="M307.11,301.02c-3.35,2-7.1,2.98-11.26,2.98c-4.15,0-7.89-0.99-11.27-2.98c-3.33-1.98-5.59-5.07-6.75-9.25
			l-11.41-42.91c-0.27-0.96-0.61-1.21-1.05-0.79c-0.08,0.17-0.15,0.45-0.15,0.79c2.47,19.14,3.47,35.8,2.94,49.95l-0.66,17.94
			h-26.72l3.72-74.13c0.3-4.43,1.74-8.21,4.33-11.37c2.63-3.12,5.8-5.13,9.54-6.06c3.73-0.87,7.51-1.03,11.43-0.45
			c3.91,0.58,7.46,2.36,10.64,5.33c3.2,2.96,5.35,6.72,6.41,11.34l8.41,36.25c0.18,1.01,0.41,1.5,0.72,1.5
			c0.33,0,0.57-0.46,0.72-1.45l8.42-36.26c1.04-4.6,3.15-8.38,6.32-11.35c3.19-2.97,6.74-4.73,10.63-5.3
			c3.89-0.58,7.7-0.43,11.42,0.46c3.72,0.87,6.89,2.88,9.51,6.05c2.6,3.14,4.04,6.91,4.3,11.36l3.72,74.09h-26.67l-0.67-17.94
			c-0.53-14.16,0.43-30.83,2.9-49.95c0.09-0.61-0.1-0.93-0.58-0.93c-0.3,0.09-0.54,0.37-0.74,0.93l-11.4,42.89
			C312.7,295.94,310.47,299.04,307.11,301.02"/>
		<path class="st0" d="M364.03,299.22v-56.04c0-5.67,1.67-10,4.98-13.03c3.33-3.01,8.08-4.49,14.29-4.49h44.5v22.31h-32.82
			c-0.89,0-1.51,0.15-1.85,0.47c-0.36,0.29-0.53,0.9-0.53,1.8v9.8h31.74v21.66h-31.74v10.48c0,0.89,0.17,1.5,0.53,1.81
			c0.34,0.3,0.96,0.46,1.85,0.46h32.82v22.32h-44.5c-6.21,0-10.97-1.51-14.29-4.5C365.71,309.23,364.03,304.9,364.03,299.22"/>
	</g>
	<g>
		<path class="st1" d="M621.33,230.99l0,48.58c0.38,10.01-3.2,17.28-10.76,21.79c-7.56,4.52-19.55,6.77-35.97,6.77
			c-19.33,0-33.61-3.29-42.85-9.88c-9.24-6.58-15.22-17.64-17.96-33.17c-1.49-8.46-2.23-18.51-2.2-30.16
			c-0.05-27.03,4.25-46.09,12.9-57.19c8.65-11.09,25.11-16.64,49.37-16.64c15.25,0,30.2,1.46,44.85,4.37l-3.12,24.75
			c-15.23-2.22-27.07-3.33-35.52-3.33c-10.54,0-18.47,1.39-23.8,4.16c-5.33,2.78-8.89,6.79-10.66,12.06
			c-1.77,5.27-2.65,13.1-2.62,23.5c-0.08,17.61,0.41,29.46,1.49,35.56c1.37,7.76,4.26,13.1,8.66,16.01
			c4.4,2.91,11.69,4.37,21.84,4.37c12.24,0,18.33-3.31,18.27-9.95l-0.21-41.62H621.33z"/>
		<path class="st1" d="M651.03,283.21v-119.6h30.62l-0.01,111.49c-0.36,4.28,1.69,6.42,6.12,6.42H741L741,306.27H675.9
			C659.4,306.27,651.1,298.59,651.03,283.21z"/>
		<path class="st1" d="M805.59,308.97c-19.96,0-34.59-3.33-43.87-9.98c-9.29-6.65-15.26-17.54-17.92-32.65
			c-1.42-8.04-2.15-18.51-2.21-31.4c-0.04-13.59,0.8-24.75,2.52-33.48c1.72-8.73,4.92-16.32,9.61-22.77
			c4.69-6.45,11.22-11.05,19.61-13.83c8.38-2.77,19.16-4.16,32.33-4.16c19.82,0,34.38,3.36,43.68,10.09
			c9.3,6.73,15.26,17.57,17.9,32.55c1.44,8.18,2.19,18.72,2.24,31.61c0.06,13.72-0.77,24.92-2.5,33.59
			c-1.73,8.67-4.91,16.19-9.54,22.56c-4.63,6.38-11.14,10.95-19.52,13.72C829.54,307.59,818.76,308.97,805.59,308.97z M803.3,186.28
			c-10.68,0-18.14,2.49-22.39,7.49c-4.25,4.99-6.68,13.65-7.27,25.99c-0.66,5.69-0.89,12.82-0.69,21.42
			c0.2,8.6,0.72,15.32,1.58,20.17c1.49,8.46,4.73,14.25,9.72,17.36c4.99,3.12,12.82,4.68,23.49,4.68c10.53,0,18-2.46,22.41-7.38
			c4.4-4.92,6.9-13.55,7.49-25.89c0.64-5.82,0.83-13,0.57-21.52c-0.25-8.53-0.81-15.21-1.67-20.07c-1.49-8.45-4.7-14.28-9.63-17.47
			C821.98,187.88,814.11,186.28,803.3,186.28z"/>
		<path class="st1" d="M892.09,304.19l0-117.71c-0.02-7.2,2.11-12.82,6.39-16.84s10.58-6.03,18.9-6.03h32.86
			c17.88,0,30.53,3.12,37.94,9.36c7.41,6.24,11.31,15.6,11.71,28.07c0.33,8.18-1.51,15.01-5.54,20.48
			c-4.02,5.48-9.56,9.05-16.62,10.71c8.36,1.8,14.99,5.61,19.9,11.44c4.91,5.82,7.4,13.65,7.47,23.5
			c0.06,13.72-4.43,24.02-13.48,30.88c-9.05,6.86-24.25,10.29-45.6,10.29C928.82,308.35,910.84,306.96,892.09,304.19z M949.87,186.7
			h-21.83c-4.58,0-6.92,2.06-7.02,6.18v31.25h29.22c13.45,0,20.06-5.75,19.83-17.26l-0.06-2.7c-0.08-5.96-1.69-10.36-4.83-13.21
			C962.04,188.12,956.94,186.7,949.87,186.7z M921.02,244.09v38.82c8.37,1.15,16.99,1.73,25.86,1.73c10.26,0,17.48-1.53,21.65-4.57
			c4.17-3.05,6.21-8.04,6.1-14.97l-0.03-2.5c-0.04-6.52-1.95-11.23-5.72-14.14c-3.77-2.91-9.75-4.37-17.92-4.37H921.02z"/>
		<path class="st1" d="M1111.63,306.27l-9.78-33.06h-53.86l-9.14,33.06h-31.61l36.1-119.57c2.71-9.01,6.32-15.25,10.84-18.71
			c4.52-3.46,11.35-5.2,20.5-5.2c8.87,0,15.65,1.91,20.35,5.72c4.69,3.81,8.47,10.29,11.33,19.44l36.88,118.33H1111.63z
			 M1068.97,197.33l-14.66,53h43.37l-15.32-53.22c-1.75-5.56-3.94-8.34-6.57-8.34c-1.54,0-2.82,0.63-3.83,1.88
			C1070.95,191.91,1069.95,194.13,1068.97,197.33z"/>
		<path class="st1" d="M1157.18,283.21l0-119.6h30.62l0,111.49c-0.36,4.28,1.68,6.42,6.12,6.42h53.23l0,24.75h-65.09
			C1165.55,306.27,1157.26,298.59,1157.18,283.21z"/>
	</g>
	<path class="st0" d="M1258.99,257.14c3.77,2.37,27.82,48.32,29.01,48.99c2.84-0.53,16.37-1.29,17.38-0.31
		c1.01,0.97,1.13,10.15,0.19,10.86c-0.93,0.72-8.96,0.59-11.18,0.34c-0.86,0.85,9.07,14.81,10.86,14.79
		c1.79-0.04,20.49-1.17,32.77-1.24c10.31-0.07,19.73,6.87,19.75,8.27c0.02,1.4-9.16,8.65-19.46,8.93
		c-12.29,0.33-31.02-0.17-32.8-0.15c-1.78,0.04-11.24,14.32-10.35,15.15c2.21-0.34,10.24-0.73,11.19-0.05
		c0.95,0.68,1.14,9.85,0.17,10.86c-0.98,1.02-14.53,0.71-17.38,0.28c-1.17,0.71-23.66,47.44-27.35,49.93
		c-3.69,2.5-10.18,3.49-10.21,1.82c-0.02-1.68,14.11-40.87,15.69-48.51c1.59-7.65,1.65-25.2,0.58-26.24
		c-1.07-1.03-52.05-3.11-54.57-2.8c-2.53,0.3-7.61,15.75-12.12,19.29c-4.52,3.53-10.59,3.78-11.29,2.61
		c-0.7-1.17,7.54-23.79,5.41-24.32c-1.65-0.41-13.06-2.86-13.08-3.86c-0.01-0.99,11.31-3.82,12.94-4.29
		c2.11-0.6-6.88-22.93-6.22-24.12c0.66-1.19,6.74-1.15,11.37,2.23c4.64,3.39,10.23,18.66,12.77,18.88
		c2.54,0.22,53.41-3.57,54.44-4.63c1.03-1.07,0.39-18.62-1.45-26.2c-1.84-7.59-17.28-46.29-17.31-47.96
		C1248.71,254,1255.22,254.78,1258.99,257.14z"/>
	<path class="st1" d="M1182.66,353.89c-3.98-1.2-7.05-2.65-9.03-4.92H547.82c0,0-43.86-3.32-46.2-75.84c0,0-12.87,76.62,41.53,87.26
		h637.61c0.24-0.82,0.49-1.66,0.76-2.59C1181.84,356.71,1182.25,355.33,1182.66,353.89z"/>
	<path class="st1" d="M1182.26,329.67c-0.47-1.43-0.92-2.8-1.28-3.87c-0.17-0.5-0.32-0.98-0.48-1.45H527.03
		c0,0-43.86-3.32-46.21-75.85c0,0-12.87,76.62,41.53,87.26h650.4C1174.57,332.9,1177.86,331.15,1182.26,329.67z"/>
	<g>
		<path class="st0" d="M542.49,387.03c0-1.49-0.38-2.52-1.13-3.1c-0.76-0.58-1.87-0.87-3.33-0.87c-2.5,0-4.82,0.62-6.97,1.86
			c-2.14,1.24-3.21,2.61-3.21,4.1c0,0.95,0.4,1.76,1.21,2.43c0.81,0.67,2.89,1.5,6.25,2.49c3.52,1.04,6.14,2.17,7.85,3.42
			c1.71,1.24,2.57,2.73,2.57,4.48c0,2.9-2.18,5.56-6.53,7.97c-4.35,2.41-8.88,3.62-13.57,3.62c-1.53,0-2.75-0.32-3.67-0.97
			c-0.92-0.65-1.38-1.44-1.38-2.39c0-0.75,0.21-1.45,0.62-2.1c0.41-0.65,0.91-0.97,1.49-0.97c0.36,0,0.68,0.06,0.98,0.18
			c1.55,0.68,3.01,1.02,4.35,1.02c2.31,0,4.91-0.66,7.79-1.97c2.88-1.31,4.32-2.6,4.32-3.87c0-0.53-0.36-1.04-1.08-1.52
			c-0.72-0.49-2.18-1.1-4.39-1.84c-3.21-1.07-5.63-1.95-7.25-2.64c-1.62-0.69-2.85-1.6-3.69-2.72c-0.84-1.12-1.26-2.47-1.26-4.05
			c0-2.81,1.61-5.43,4.84-7.85c3.23-2.42,7.02-3.63,11.38-3.63c2.5,0,4.48,0.5,5.92,1.51c1.44,1.01,2.17,2.16,2.17,3.45
			C546.78,385.71,545.35,387.03,542.49,387.03z"/>
		<path class="st0" d="M554.57,400.89c2.46-4.68,4.58-7.86,6.36-9.55c1.79-1.69,3.59-2.54,5.41-2.54c1.26,0,2.31,0.44,3.14,1.32
			c0.84,0.88,1.45,3.17,1.83,6.87c0.16,1.76,0.37,3.18,0.62,4.26c0.25,1.08,0.53,2.04,0.84,2.88c0.31,0.83,0.76,1.62,1.33,2.36
			c0.45,0.59,0.67,1.15,0.67,1.69c0,0.54-0.26,1.04-0.77,1.49c-0.51,0.45-1.1,0.68-1.77,0.68c-1.32,0-2.49-0.73-3.51-2.19
			c-1.02-1.46-1.63-3.47-1.82-6.04c-0.24-3.14-0.49-5.15-0.77-6.02c-0.27-0.87-0.73-1.31-1.37-1.31c-0.86,0-2.53,1.74-5.01,5.22
			s-4.27,6.27-5.36,8.36c-0.68,1.58-1.21,2.6-1.58,3.07c-0.37,0.47-0.83,0.7-1.38,0.7c-0.9,0-1.64-0.23-2.2-0.68
			c-0.56-0.45-0.84-1.09-0.84-1.92c0-0.41,0.2-1.68,0.6-3.81c1.51-8.08,2.75-16.67,3.71-25.79c0.24-2.2,0.69-3.71,1.37-4.55
			c0.67-0.83,1.29-1.25,1.86-1.25c0.78,0,1.47,0.31,2.04,0.93c0.58,0.62,0.87,1.48,0.87,2.57c0,1.68-0.2,3.62-0.6,5.82
			c-0.4,2.19-1.15,5.7-2.24,10.51C555.35,396.86,554.87,399.17,554.57,400.89z"/>
		<path class="st0" d="M598.01,399.85c-0.99,3.52-2.88,6.48-5.66,8.9c-2.78,2.41-5.55,3.62-8.32,3.62c-2.19,0-4-0.82-5.42-2.45
			c-1.42-1.63-2.13-3.64-2.13-6.01c0-3.88,1.3-7.7,3.91-11.46c2.61-3.76,5.77-5.64,9.49-5.64c2.53,0,4.58,0.95,6.15,2.85
			c1.57,1.9,2.35,4.17,2.35,6.8c0,1.14-0.13,2.26-0.38,3.36V399.85z M586.45,392.72c-1.04,0.93-2.05,2.42-3.04,4.46
			c-0.99,2.04-1.49,4.1-1.49,6.16c0,1.25,0.23,2.28,0.68,3.09c0.45,0.81,1.05,1.22,1.79,1.22c1.84,0,3.75-1.11,5.73-3.31
			c1.98-2.21,2.98-4.69,2.98-7.45c0-1.55-0.32-2.82-0.97-3.82c-0.64-1-1.54-1.5-2.7-1.5c-1.1,0-2.08,0.38-2.95,1.15H586.45z"/>
		<path class="st0" d="M606.89,409.68c-0.25,1.05-0.5,2.65-0.76,4.78l-1.07,8.86c-0.18,1.44-0.52,2.44-1.03,3
			c-0.51,0.56-1.14,0.83-1.88,0.83c-0.67,0-1.3-0.25-1.9-0.76c-0.6-0.5-0.9-1.07-0.9-1.68c0-1.22,0.18-2.63,0.55-4.22
			c2.21-8.95,3.41-18.23,3.62-27.86v-0.45c0-2.02,0.05-3.36,0.17-4.03c0.11-0.67,0.43-1.26,0.96-1.77c0.52-0.51,1.27-0.77,2.23-0.77
			c1.61,0,2.42,1.26,2.42,3.77c0,1.02-0.19,2.76-0.56,5.21l-0.22,1.55c1.69-2.86,3.7-5.23,6.02-7.12c2.33-1.89,4.41-2.83,6.24-2.83
			c1.66,0,3.07,0.6,4.23,1.81c1.16,1.2,1.74,2.72,1.74,4.54c0,4.86-1.86,9.27-5.57,13.25c-3.71,3.98-7.38,5.97-11.01,5.97
			C608.49,411.78,607.38,411.08,606.89,409.68z M619.93,391.34c-1.81,0-4.15,1.79-7.03,5.37c-2.88,3.58-4.32,6.39-4.32,8.44
			c0,0.52,0.26,1,0.77,1.41c0.51,0.41,1.11,0.62,1.79,0.62c1.88,0,4.04-1.5,6.47-4.5c2.44-3,3.66-5.9,3.66-8.7
			c0-0.93-0.14-1.61-0.42-2.02C620.56,391.55,620.26,391.34,619.93,391.34z"/>
		<path class="st0" d="M653.53,399.8l-0.38,4.04c-0.12,1.29-0.18,2.57-0.18,3.83c0,1.15,0.1,2.47,0.31,3.97
			c-0.15,0.53-0.52,0.98-1.11,1.35c-0.59,0.38-1.21,0.56-1.87,0.56c-2.03,0-3.04-1.31-3.04-3.93c0-1.16,0.32-3.92,0.95-8.3
			c0.44-3.14,0.67-5.48,0.67-7.01c0-0.09-0.09-0.2-0.27-0.32c-1.02-0.66-1.53-1.29-1.53-1.9c0-0.78,0.57-1.63,1.71-2.55
			c0.55-0.44,0.88-0.94,1.01-1.52c0.13-0.58,0.31-1.49,0.54-2.74c0.8-4.79,2.04-8.2,3.72-10.23c1.68-2.02,3.82-3.03,6.41-3.03
			c1.51,0,2.79,0.5,3.83,1.5c1.04,1,1.57,2.24,1.57,3.71c0,1.32-0.3,2.7-0.9,4.12c-0.6,1.42-1.39,2.13-2.37,2.13
			c-0.43,0-0.79-0.14-1.09-0.42c-0.3-0.28-0.44-0.64-0.44-1.09l0.13-1.96c0-2.35-0.48-3.52-1.44-3.52c-1.2,0-2.32,1.53-3.37,4.59
			c-1.04,3.06-1.57,5.67-1.57,7.82c0,0.23,0.14,0.34,0.42,0.34c3.07,0,5.23-0.01,6.5-0.05c1.27-0.03,1.9,0.47,1.9,1.49
			c0,0.99-0.77,1.73-2.3,2.2c-1.53,0.47-3.14,0.71-4.83,0.71c-1.14,0.1-1.88,0.2-2.22,0.29c-0.36,2.23-0.61,4.19-0.78,5.89V399.8z"
			/>
		<path class="st0" d="M668.95,400.1l0.38-0.72c1.79-3.66,3.72-6.62,5.79-8.9c2.07-2.28,4.08-3.42,6.05-3.42
			c1.51,0,2.74,0.42,3.7,1.26c0.96,0.84,1.43,1.84,1.43,3c0,0.72-0.16,1.34-0.49,1.86c-0.33,0.52-0.78,0.78-1.36,0.78
			c-0.92,0-1.76-0.38-2.51-1.15c-0.53-0.5-0.96-0.74-1.27-0.74c-1.11,0-2.97,1.75-5.58,5.25c-2.61,3.51-4.18,7.45-4.71,11.82
			c-0.16,1.26-0.53,2.15-1.09,2.65c-0.56,0.5-1.33,0.76-2.29,0.76c-1.02,0-1.75-0.59-2.18-1.77c-0.43-1.18-0.64-3.11-0.64-5.78
			c0-1.1,0.03-2.58,0.09-4.45c0.06-1.76,0.23-3.91,0.51-6.45c0.07-0.66,0.13-1.18,0.16-1.56c0.13-1.48,0.28-2.49,0.46-3.03
			c0.17-0.55,0.57-1.06,1.19-1.55c0.62-0.48,1.31-0.72,2.07-0.72c0.8,0,1.41,0.23,1.82,0.7c0.41,0.47,0.62,0.98,0.62,1.53
			c0,0.71-0.33,2.17-1,4.4c-0.24,0.77-0.44,1.68-0.6,2.75L668.95,400.1z"/>
		<path class="st0" d="M706.56,399.85c-0.99,3.52-2.88,6.48-5.65,8.9c-2.78,2.41-5.55,3.62-8.32,3.62c-2.19,0-4-0.82-5.42-2.45
			c-1.42-1.63-2.13-3.64-2.13-6.01c0-3.88,1.3-7.7,3.91-11.46c2.61-3.76,5.77-5.64,9.48-5.64c2.53,0,4.59,0.95,6.15,2.85
			c1.57,1.9,2.36,4.17,2.36,6.8c0,1.14-0.13,2.26-0.38,3.36V399.85z M695.01,392.72c-1.04,0.93-2.05,2.42-3.04,4.46
			c-0.99,2.04-1.49,4.1-1.49,6.16c0,1.25,0.23,2.28,0.68,3.09c0.45,0.81,1.05,1.22,1.79,1.22c1.84,0,3.75-1.11,5.73-3.31
			c1.99-2.21,2.98-4.69,2.98-7.45c0-1.55-0.32-2.82-0.97-3.82c-0.64-1-1.54-1.5-2.7-1.5c-1.1,0-2.08,0.38-2.96,1.15H695.01z"/>
		<path class="st0" d="M716.15,409.95c-0.18,1.55-1.03,2.32-2.55,2.32c-1.94,0-2.91-1.42-2.91-4.26c0-4.6,0.24-8.53,0.73-11.8
			c0.38-2.54,0.58-5.04,0.58-7.49c0-0.59,0.18-1.08,0.55-1.48c0.37-0.4,0.89-0.6,1.56-0.6c2.22,0,3.33,1.37,3.33,4.11
			c0,0.89-0.39,3.15-1.18,6.79c-0.47,2.17-0.71,3.74-0.71,4.72c4.23-9.45,8.06-14.17,11.46-14.17c1.38,0,2.49,0.56,3.32,1.67
			c0.83,1.11,1.27,3.58,1.3,7.4c0.01,3.49,0.19,5.23,0.53,5.23c0.27,0,1.19-1.69,2.78-5.08c1.76-3.74,3.27-6.22,4.52-7.42
			c1.25-1.2,2.56-1.81,3.94-1.81c1.64,0,2.83,0.72,3.58,2.15c0.74,1.44,1.26,3.86,1.55,7.27c0.22,2.71,0.52,4.75,0.9,6.14
			c0.38,1.38,1.03,2.3,1.94,2.75c0.74,0.36,1.11,0.9,1.11,1.62c0,0.65-0.42,1.3-1.27,1.95c-0.84,0.65-1.7,0.98-2.58,0.98
			c-1.51,0-2.69-0.76-3.55-2.27c-0.85-1.51-1.42-4.54-1.72-9.1c-0.16-2.19-0.34-3.65-0.52-4.37c-0.19-0.71-0.46-1.07-0.83-1.07
			c-0.32,0-0.8,0.54-1.42,1.61c-0.62,1.08-1.7,3.22-3.22,6.42c-1.35,2.89-2.51,4.9-3.47,6.04c-0.97,1.15-2.01,1.72-3.12,1.72
			c-0.86,0-1.72-0.38-2.59-1.13c-0.87-0.75-1.34-3.48-1.41-8.19c-0.07-4.2-0.34-6.29-0.8-6.29c-0.62,0-2.12,1.86-4.49,5.59
			C719.14,403.67,717.36,407.01,716.15,409.95z"/>
		<path class="st0" d="M787.38,403.73c-3.9,5.22-7.65,7.83-11.28,7.83c-1.33,0-2.48-0.53-3.44-1.6c-0.96-1.07-1.44-2.43-1.44-4.08
			c0-3.98,1.75-8.23,5.24-12.73c3.49-4.5,7.02-6.76,10.57-6.76c1.81,0,2.99,0.93,3.56,2.78c1.7,0,2.55,0.66,2.55,1.99
			c0,0.63-0.16,1.77-0.49,3.43c-0.59,3.1-0.89,5.57-0.89,7.42c0,1.92,0.13,3.28,0.39,4.06c0.26,0.78,0.45,1.29,0.57,1.53
			c0.12,0.24,0.47,0.5,1.07,0.77c0.59,0.29,0.89,0.69,0.89,1.2c0,0.77-0.38,1.41-1.15,1.92c-0.76,0.51-1.56,0.77-2.39,0.77
			C788.35,412.23,787.1,409.4,787.38,403.73z M786.05,391.21c-1.5,0-3.44,1.68-5.83,5.04c-2.39,3.36-3.59,6.22-3.59,8.56
			c0,1.23,0.25,1.85,0.76,1.85c1.75,0,3.9-1.57,6.45-4.72c2.56-3.15,3.83-5.91,3.83-8.27c0-0.75-0.17-1.35-0.5-1.79
			C786.84,391.43,786.46,391.21,786.05,391.21z"/>
		<path class="st0" d="M803.42,400.1l0.38-0.72c1.79-3.66,3.72-6.62,5.79-8.9c2.06-2.28,4.08-3.42,6.05-3.42
			c1.51,0,2.74,0.42,3.7,1.26c0.95,0.84,1.43,1.84,1.43,3c0,0.72-0.16,1.34-0.49,1.86c-0.32,0.52-0.78,0.78-1.35,0.78
			c-0.92,0-1.75-0.38-2.51-1.15c-0.53-0.5-0.96-0.74-1.27-0.74c-1.11,0-2.97,1.75-5.58,5.25c-2.61,3.51-4.18,7.45-4.71,11.82
			c-0.16,1.26-0.52,2.15-1.09,2.65c-0.56,0.5-1.33,0.76-2.29,0.76c-1.02,0-1.75-0.59-2.18-1.77c-0.43-1.18-0.64-3.11-0.64-5.78
			c0-1.1,0.03-2.58,0.09-4.45c0.06-1.76,0.23-3.91,0.51-6.45c0.07-0.66,0.13-1.18,0.16-1.56c0.14-1.48,0.28-2.49,0.46-3.03
			c0.17-0.55,0.57-1.06,1.19-1.55c0.62-0.48,1.31-0.72,2.07-0.72c0.8,0,1.41,0.23,1.82,0.7c0.41,0.47,0.62,0.98,0.62,1.53
			c0,0.71-0.33,2.17-1,4.4c-0.24,0.77-0.44,1.68-0.6,2.75L803.42,400.1z"/>
		<path class="st0" d="M841.04,399.85c-0.99,3.52-2.88,6.48-5.65,8.9c-2.78,2.41-5.55,3.62-8.32,3.62c-2.19,0-4-0.82-5.42-2.45
			c-1.42-1.63-2.13-3.64-2.13-6.01c0-3.88,1.3-7.7,3.91-11.46c2.61-3.76,5.77-5.64,9.49-5.64c2.53,0,4.59,0.95,6.15,2.85
			c1.57,1.9,2.36,4.17,2.36,6.8c0,1.14-0.13,2.26-0.38,3.36V399.85z M829.49,392.72c-1.04,0.93-2.05,2.42-3.05,4.46
			c-0.99,2.04-1.49,4.1-1.49,6.16c0,1.25,0.23,2.28,0.68,3.09c0.45,0.81,1.05,1.22,1.79,1.22c1.84,0,3.75-1.11,5.73-3.31
			c1.99-2.21,2.98-4.69,2.98-7.45c0-1.55-0.32-2.82-0.97-3.82c-0.64-1-1.54-1.5-2.7-1.5c-1.1,0-2.08,0.38-2.96,1.15H829.49z"/>
		<path class="st0" d="M860.41,403.03c-1.42,2.63-3.07,4.72-4.94,6.27c-1.88,1.55-3.77,2.32-5.7,2.32c-1.14,0-2.29-0.61-3.45-1.83
			c-1.16-1.22-1.74-3.09-1.74-5.62c0-1.79,0.45-4.49,1.33-8.1c0.77-2.98,1.15-5.24,1.15-6.79c0.59-1.26,1.52-1.9,2.78-1.9
			c0.86,0,1.54,0.29,2.05,0.87c0.51,0.58,0.77,1.16,0.77,1.75c0,1.07-0.37,2.59-1.11,4.56c-0.43,1.17-0.89,2.83-1.39,4.97
			c-0.5,2.14-0.74,3.52-0.74,4.12c0,2,0.41,3,1.22,3c1.29,0,3.03-1.25,5.22-3.77c2.19-2.51,3.62-5.08,4.29-7.72
			c0.67-2.57,1.26-4.25,1.78-5.05c0.52-0.8,1.25-1.2,2.2-1.2c1.54,0,2.31,0.87,2.31,2.62c0,0.26-0.13,0.77-0.38,1.53
			c-0.87,2.66-1.31,5.66-1.31,9c0,3.91,0.65,6.25,1.95,7.01c0.43,0.26,0.64,0.57,0.64,0.95c0,0.54-0.38,1.05-1.13,1.53
			c-0.76,0.48-1.48,0.72-2.15,0.72c-1.17,0-2.07-0.84-2.7-2.52C860.72,408.11,860.41,405.86,860.41,403.03z"/>
		<path class="st0" d="M890.17,407.99c-0.71-1.35-1.23-3.88-1.55-7.58c-0.33-3.85-1.05-5.77-2.18-5.77c-1.07,0-2.91,2-5.53,6.01
			c-2.62,4.01-4.24,6.97-4.84,8.88c-0.14,0.57-0.38,1.05-0.74,1.42c-0.36,0.38-0.72,0.56-1.08,0.56c-2.25,0-3.38-1.05-3.38-3.14
			c0-0.71,0.22-2.32,0.67-4.83c0.58-3.25,0.87-7.22,0.87-11.91c0-0.71,0.3-1.46,0.91-2.27c0.61-0.8,1.25-1.21,1.93-1.21
			c0.86,0,1.52,0.22,1.98,0.65c0.46,0.44,0.69,1.59,0.69,3.47c0,1.43-0.42,4.19-1.27,8.3c3.22-7.64,6.8-11.46,10.75-11.46
			c3.44,0,5.45,2.74,6.04,8.23c0.59,5.6,1.27,8.39,2.04,8.39c0.34,0,0.73-0.08,1.18-0.23c0.53-0.18,0.96-0.27,1.27-0.27
			c0.71,0,1.07,0.42,1.07,1.26c0,0.77-0.49,1.59-1.47,2.45c-0.98,0.87-2.21,1.3-3.69,1.3c-1.72,0-2.95-0.76-3.69-2.28H890.17z"/>
		<path class="st0" d="M916.39,403.75c-3.84,5.52-7.69,8.28-11.58,8.28c-1.57,0-2.84-0.63-3.8-1.88c-0.96-1.26-1.44-2.85-1.44-4.79
			c0-3.93,1.58-7.83,4.74-11.71c3.16-3.88,6.36-5.82,9.61-5.82c1.87,0,3.19,0.5,3.98,1.49c1.11-4.93,1.77-8.02,1.98-9.25
			c0.45-2.29,0.82-3.8,1.11-4.56c0.3-0.75,0.75-1.33,1.36-1.75c0.61-0.41,1.13-0.62,1.58-0.62c0.76,0,1.33,0.31,1.73,0.94
			c0.4,0.63,0.6,1.43,0.6,2.39c0,0.42-0.33,1.63-0.98,3.63c-1.07,3.25-2.05,7.17-2.96,11.78c-0.91,4.6-1.37,8.26-1.37,10.99
			c0,2.6,0.56,3.9,1.69,3.9c0.58,0,1.19-0.16,1.84-0.47c0.65-0.3,1.11-0.45,1.38-0.45c0.72,0,1.09,0.43,1.09,1.28
			c0,1.04-0.74,2.07-2.21,3.1c-1.47,1.03-2.87,1.55-4.19,1.55c-1.42,0-2.52-0.78-3.29-2.32
			C916.49,407.91,916.2,406.01,916.39,403.75z M913.93,392.18c-1.94,0-3.97,1.5-6.08,4.51c-2.11,3.01-3.16,5.76-3.16,8.26
			c0,1.46,0.53,2.19,1.6,2.19c1.81,0,3.96-1.63,6.46-4.89c2.5-3.26,3.75-5.84,3.75-7.74c0-0.57-0.24-1.1-0.71-1.59
			C915.32,392.42,914.7,392.18,913.93,392.18z"/>
		<path class="st0" d="M956.12,392.97c-0.14,0-0.55,1.68-1.26,5.03c-0.71,3.35-1.06,5.38-1.06,6.09c0,1.23,0.13,2.09,0.39,2.58
			c0.26,0.49,0.69,0.73,1.28,0.73c0.83,0,1.62-0.15,2.39-0.44c0.76-0.29,1.77-0.95,3.01-1.97c0.77-0.65,1.42-0.97,1.95-0.97
			c0.43,0,0.78,0.12,1.04,0.37c0.26,0.25,0.39,0.54,0.39,0.87c0,1.32-1.05,2.82-3.15,4.5c-2.1,1.68-4.32,2.52-6.67,2.52
			c-1.95,0-3.45-0.59-4.48-1.76c-1.03-1.17-1.55-2.86-1.55-5.05c0-2.03,0.75-6.08,2.24-12.16c-0.95,0.1-1.61,0.16-1.98,0.16h-0.47
			c-0.68,0-1.37-0.23-2.08-0.68c-0.7-0.45-1.05-1.17-1.05-2.17c0-1.26,0.7-1.9,2.11-1.9l4.76-0.18c0.62-1.82,1.28-4.2,1.98-7.15
			c0.41-1.84,1.35-2.75,2.82-2.75c0.82,0,1.45,0.25,1.91,0.76c0.46,0.5,0.69,1.06,0.69,1.68c0,0.24-0.63,2.56-1.89,6.97
			c4.71-0.42,7.29-0.63,7.75-0.63c0.78,0,1.3,0.12,1.55,0.35c0.25,0.23,0.38,0.68,0.38,1.34c0,1.34-1.12,2.19-3.35,2.55
			L956.12,392.97z"/>
		<path class="st0" d="M972.42,400.89c2.46-4.68,4.58-7.86,6.37-9.55c1.78-1.69,3.59-2.54,5.41-2.54c1.26,0,2.31,0.44,3.14,1.32
			c0.84,0.88,1.45,3.17,1.83,6.87c0.16,1.76,0.37,3.18,0.62,4.26c0.25,1.08,0.53,2.04,0.85,2.88c0.31,0.83,0.75,1.62,1.33,2.36
			c0.45,0.59,0.67,1.15,0.67,1.69c0,0.54-0.26,1.04-0.77,1.49c-0.51,0.45-1.1,0.68-1.77,0.68c-1.32,0-2.49-0.73-3.51-2.19
			c-1.02-1.46-1.63-3.47-1.82-6.04c-0.24-3.14-0.49-5.15-0.76-6.02c-0.28-0.87-0.73-1.31-1.37-1.31c-0.86,0-2.53,1.74-5.01,5.22
			c-2.48,3.48-4.27,6.27-5.36,8.36c-0.68,1.58-1.21,2.6-1.58,3.07c-0.37,0.47-0.83,0.7-1.38,0.7c-0.9,0-1.64-0.23-2.2-0.68
			c-0.56-0.45-0.85-1.09-0.85-1.92c0-0.41,0.2-1.68,0.6-3.81c1.51-8.08,2.75-16.67,3.71-25.79c0.24-2.2,0.69-3.71,1.37-4.55
			c0.67-0.83,1.29-1.25,1.85-1.25c0.79,0,1.47,0.31,2.04,0.93c0.58,0.62,0.87,1.48,0.87,2.57c0,1.68-0.2,3.62-0.6,5.82
			c-0.4,2.19-1.15,5.7-2.24,10.51C973.2,396.86,972.72,399.17,972.42,400.89z"/>
		<path class="st0" d="M1014.74,403.53c0,1.56-1.29,3.43-3.89,5.6c-2.59,2.17-5.52,3.26-8.77,3.26c-2.5,0-4.47-0.8-5.91-2.4
			c-1.44-1.6-2.15-3.83-2.15-6.69c0-4.21,1.47-8.16,4.4-11.84c2.93-3.68,6.07-5.53,9.4-5.53c1.66,0,2.99,0.54,4,1.6
			c1.01,1.07,1.51,2.34,1.51,3.81c0,2.62-1.24,5.11-3.71,7.48c-2.47,2.37-5.64,4.01-9.51,4.91c-0.45,0.1-0.67,0.38-0.67,0.81
			c0,0.72,0.31,1.41,0.94,2.06c0.63,0.65,1.47,0.98,2.52,0.98c2.98,0,5.93-1.56,8.87-4.67c0.56-0.6,1.11-0.9,1.64-0.9
			C1014.3,402.01,1014.74,402.52,1014.74,403.53z M999.84,399.53c2.34-0.48,4.4-1.49,6.19-3.05c1.79-1.55,2.68-2.95,2.68-4.22
			c0-0.5-0.14-0.91-0.41-1.25c-0.27-0.34-0.63-0.51-1.06-0.51c-1.29,0-2.72,0.96-4.29,2.89
			C1001.38,395.32,1000.34,397.37,999.84,399.53z"/>
		<path class="st0" d="M1052.76,397.1c-0.15,0.24-1.27,2.62-3.38,7.13c-0.18,0.39-0.28,0.61-0.31,0.65
			c-2.52,5.16-4.46,7.74-5.82,7.74c-2.13,0-4-2.69-5.6-8.06c-1.6-5.38-2.4-9.85-2.4-13.43c0-1.29,0.3-2.34,0.9-3.14
			c0.6-0.8,1.45-1.2,2.56-1.2c0.7,0,1.31,0.3,1.86,0.91c0.54,0.61,0.81,1.19,0.81,1.75l-0.2,2.98c-0.06,0.9-0.09,1.81-0.09,2.7
			c0,1.6,0.33,3.71,0.98,6.35c0.65,2.64,1.11,3.96,1.38,3.96c0.19,0,0.94-1.34,2.24-4.02c1.7-3.5,3.08-6.15,4.13-7.94h-0.02
			c1.48-2.86,2.79-4.73,3.93-5.62c0.96,0.11,1.73,0.4,2.32,0.88c0.58,0.48,0.88,1.05,0.88,1.69c0,0.51-0.02,0.89-0.07,1.13
			c-0.06,0.26-0.09,0.49-0.09,0.7c0,4.54,1.24,8.63,3.71,12.25c0.16,0.16,0.31,0.07,0.43-0.29c0.12-0.36,0.43-1.48,0.92-3.34
			c0.9-3.46,1.92-6.47,3.07-9.03c1.14-2.56,2.07-4.15,2.8-4.77c0.72-0.61,1.55-0.93,2.47-0.93c0.58,0,1.08,0.22,1.5,0.67
			c0.42,0.45,0.63,0.93,0.63,1.46c0,0.63-0.13,1.13-0.4,1.49c-1.91,2.59-3.61,6.17-5.09,10.74c-1.53,4.74-2.58,7.63-3.18,8.68
			c-0.59,1.05-1.1,1.58-1.51,1.58c-1.38,0-2.51-0.26-3.39-0.78c-0.88-0.52-1.73-1.48-2.56-2.9c-0.82-1.41-1.57-3.2-2.23-5.34
			C1053.29,399.59,1052.89,398.04,1052.76,397.1z"/>
		<path class="st0" d="M1094.9,399.85c-0.99,3.52-2.88,6.48-5.65,8.9c-2.78,2.41-5.55,3.62-8.32,3.62c-2.19,0-4-0.82-5.42-2.45
			c-1.42-1.63-2.13-3.64-2.13-6.01c0-3.88,1.3-7.7,3.91-11.46c2.61-3.76,5.77-5.64,9.49-5.64c2.53,0,4.59,0.95,6.15,2.85
			c1.57,1.9,2.36,4.17,2.36,6.8c0,1.14-0.13,2.26-0.38,3.36V399.85z M1083.35,392.72c-1.04,0.93-2.05,2.42-3.05,4.46
			c-0.99,2.04-1.49,4.1-1.49,6.16c0,1.25,0.23,2.28,0.68,3.09c0.45,0.81,1.05,1.22,1.79,1.22c1.84,0,3.75-1.11,5.73-3.31
			c1.99-2.21,2.98-4.69,2.98-7.45c0-1.55-0.32-2.82-0.97-3.82c-0.64-1-1.54-1.5-2.7-1.5c-1.1,0-2.08,0.38-2.96,1.15H1083.35z"/>
		<path class="st0" d="M1104.19,400.1l0.38-0.72c1.79-3.66,3.72-6.62,5.79-8.9c2.06-2.28,4.08-3.42,6.05-3.42
			c1.51,0,2.74,0.42,3.7,1.26c0.95,0.84,1.43,1.84,1.43,3c0,0.72-0.16,1.34-0.49,1.86c-0.32,0.52-0.78,0.78-1.35,0.78
			c-0.92,0-1.75-0.38-2.51-1.15c-0.53-0.5-0.96-0.74-1.27-0.74c-1.11,0-2.97,1.75-5.58,5.25c-2.61,3.51-4.18,7.45-4.71,11.82
			c-0.16,1.26-0.52,2.15-1.09,2.65c-0.56,0.5-1.33,0.76-2.29,0.76c-1.02,0-1.75-0.59-2.18-1.77c-0.43-1.18-0.64-3.11-0.64-5.78
			c0-1.1,0.03-2.58,0.09-4.45c0.06-1.76,0.23-3.91,0.51-6.45c0.07-0.66,0.13-1.18,0.16-1.56c0.14-1.48,0.29-2.49,0.46-3.03
			c0.17-0.55,0.57-1.06,1.19-1.55c0.62-0.48,1.31-0.72,2.07-0.72c0.8,0,1.41,0.23,1.82,0.7c0.41,0.47,0.62,0.98,0.62,1.53
			c0,0.71-0.33,2.17-1,4.4c-0.24,0.77-0.44,1.68-0.6,2.75L1104.19,400.1z"/>
		<path class="st0" d="M1129.6,373.1c1.6,0,2.4,0.89,2.4,2.66c0,0.81-0.11,1.69-0.33,2.63c-0.22,0.94-0.83,3.27-1.82,6.98
			c-0.72,2.69-1.27,5.63-1.65,8.81c-0.38,3.18-0.57,5.66-0.57,7.45c0,1.91,0.14,4.18,0.42,6.81c0.08,0.71,0.11,1.15,0.11,1.33
			c0,0.9-0.33,1.68-0.98,2.32c-0.65,0.65-1.36,0.97-2.13,0.97c-1.05,0-1.79-0.5-2.22-1.51c-0.43-1.01-0.64-2.74-0.64-5.19
			c0-5.28,0.61-11.5,1.83-18.65c1.22-7.16,2.22-11.38,3-12.68C1127.79,373.74,1128.66,373.1,1129.6,373.1z"/>
		<path class="st0" d="M1149.2,403.75c-3.84,5.52-7.69,8.28-11.58,8.28c-1.57,0-2.84-0.63-3.8-1.88c-0.96-1.26-1.44-2.85-1.44-4.79
			c0-3.93,1.58-7.83,4.74-11.71c3.16-3.88,6.36-5.82,9.61-5.82c1.87,0,3.19,0.5,3.98,1.49c1.11-4.93,1.77-8.02,1.98-9.25
			c0.45-2.29,0.82-3.8,1.11-4.56c0.3-0.75,0.75-1.33,1.36-1.75c0.61-0.41,1.13-0.62,1.58-0.62c0.76,0,1.33,0.31,1.73,0.94
			c0.4,0.63,0.6,1.43,0.6,2.39c0,0.42-0.33,1.63-0.98,3.63c-1.07,3.25-2.05,7.17-2.96,11.78c-0.91,4.6-1.37,8.26-1.37,10.99
			c0,2.6,0.56,3.9,1.69,3.9c0.58,0,1.19-0.16,1.84-0.47c0.65-0.3,1.11-0.45,1.38-0.45c0.72,0,1.09,0.43,1.09,1.28
			c0,1.04-0.74,2.07-2.21,3.1c-1.47,1.03-2.87,1.55-4.19,1.55c-1.42,0-2.52-0.78-3.29-2.32
			C1149.29,407.91,1149,406.01,1149.2,403.75z M1146.73,392.18c-1.94,0-3.97,1.5-6.08,4.51c-2.11,3.01-3.16,5.76-3.16,8.26
			c0,1.46,0.53,2.19,1.6,2.19c1.81,0,3.96-1.63,6.46-4.89c2.5-3.26,3.75-5.84,3.75-7.74c0-0.57-0.24-1.1-0.71-1.59
			C1148.12,392.42,1147.5,392.18,1146.73,392.18z"/>
	</g>
</g>
</svg>
