<?xml version="1.0" encoding="utf-8"?>
<!-- Generator: Adobe Illustrator 24.2.1, SVG Export Plug-In . SVG Version: 6.00 Build 0)  -->
<svg version="1.1" id="Layer_1" xmlns="http://www.w3.org/2000/svg" xmlns:xlink="http://www.w3.org/1999/xlink" x="0px" y="0px"
	 viewBox="0 0 1260.98 287.8" style="enable-background:new 0 0 1260.98 287.8;" xml:space="preserve">
<style type="text/css">
	.st0{fill:#1B75BB;}
	.st1{fill:#8BC53F;}
	.st2{fill:#FFFFFF;}
</style>
<g>
	<path class="st0" d="M144.02,96.39H98.71v20.37h41.69v20.59H98.71v46.4H71.73V75.8h72.29V96.39z"/>
</g>
<g>
	<path class="st0" d="M379.96,181.12h-31.12l-28.32-37.26h-9.14v37.26h-25.38V79.52h40.87c5.64,0,10.55,0.35,14.74,1.06
		c4.19,0.71,8.05,2.17,11.6,4.4c3.64,2.32,6.53,5.27,8.67,8.84c2.14,3.57,3.21,8.11,3.21,13.61c0,7.78-1.75,14.09-5.25,18.94
		c-3.5,4.85-8.19,8.7-14.06,11.57L379.96,181.12z M338.88,110.63c0-2.55-0.49-4.74-1.47-6.58c-0.98-1.84-2.6-3.26-4.88-4.26
		c-1.59-0.68-3.37-1.11-5.32-1.3c-1.96-0.18-4.39-0.27-7.3-0.27h-8.53v27.36h7.3c3.55,0,6.56-0.22,9.04-0.65
		c2.48-0.43,4.58-1.35,6.31-2.76c1.64-1.27,2.85-2.8,3.65-4.57C338.48,115.82,338.88,113.5,338.88,110.63z"/>
	<path class="st0" d="M406.98,181.12V98.9h-30.02V79.52h85.57V98.9H432.5v82.23H406.98z"/>
	<path class="st0" d="M514.11,183.24c-13.65,0-24.15-3.3-31.49-9.89c-7.35-6.6-11.02-16.24-11.02-28.93V79.52h25.52v63.39
		c0,7.05,1.33,12.31,3.99,15.76c2.66,3.46,6.99,5.19,13,5.19c5.87,0,10.18-1.66,12.93-4.98c2.75-3.32,4.13-8.64,4.13-15.97V79.52
		h25.52v64.83c0,12.51-3.58,22.12-10.75,28.83C538.78,179.89,528.17,183.24,514.11,183.24z"/>
	<path class="st0" d="M663.35,181.12h-24.57l-39.17-70.83v70.83h-23.34V79.52h31.32l32.41,58.21V79.52h23.34V181.12z"/>
	<path class="st0" d="M683.96,181.12V79.52h68.72V98.9h-43.33v17.81h39.92v19.38h-39.92v25.66h43.33v19.38H683.96z"/>
</g>
<g id="XMLID_9_">
	<g id="XMLID_11_">
		<g id="XMLID_22_">
			<g id="XMLID_23_">
				<path id="XMLID_24_" class="st1" d="M262.12,195.6l-7.07-25.94c0,6.06-20.04,10.98-44.75,10.98c-24.72,0-44.75-4.92-44.75-10.98
					l-7.12,25.94c0,0,4.66,12.48,52.83,12.54C249.89,208.2,260.65,197.17,262.12,195.6z"/>
			</g>
		</g>
		<g id="XMLID_20_">
			<path id="XMLID_21_" class="st0" d="M236.61,157.81c-0.6,0.44-1.21,0.87-1.84,1.28c-0.23,0.15-0.48,0.29-0.72,0.44
				c2.78,1.07,4.4,2.33,4.4,3.69c0,3.81-12.57,6.89-28.08,6.89c-15.51,0-28.08-3.08-28.08-6.89c0-1.49,1.94-2.87,5.22-3.99
				c-0.71-0.46-1.4-0.94-2.08-1.44l-1.28,0.01c-11.23,2-18.54,5.24-18.54,8.9c0,6.06,20.04,10.98,44.75,10.98
				c24.72,0,44.75-4.92,44.75-10.98C255.12,163.05,247.82,159.81,236.61,157.81z"/>
		</g>
		<g id="XMLID_16_">
			<path id="XMLID_17_" class="st1" d="M187.62,86.89c9.12-6.1,20.68-8.37,31.49-6.24c5.4,1.05,10.63,3.12,15.26,6.16
				c4.64,3.03,8.67,7,11.83,11.63c6.33,9.18,8.84,21.03,6.66,32.14c-1.09,5.54-3.26,10.89-6.42,15.61
				c-3.17,4.72-7.26,8.77-12.02,11.92c-4.71,3.09-10.1,5.27-15.66,6.31c-5.58,1.05-11.35,0.91-16.86-0.28
				c-11.07-2.39-20.93-9.38-26.87-18.86c-2.98-4.69-5.04-9.99-5.98-15.45c-0.96-5.46-0.79-11.09,0.39-16.47
				C171.75,102.58,178.41,92.86,187.62,86.89z M187.62,86.89c-4.57,3.03-8.53,6.95-11.58,11.49c-3.05,4.55-5.14,9.71-6.19,15.06
				c-2.1,10.73,0.33,22.13,6.46,31.02c3.02,4.43,6.93,8.27,11.4,11.19c4.47,2.93,9.51,4.92,14.72,5.94
				c10.43,2.05,21.54-0.12,30.37-6.02c8.85-5.74,15.29-15.11,17.52-25.51c1.14-5.19,1.3-10.61,0.38-15.88
				c-0.91-5.27-2.88-10.36-5.77-14.92c-5.71-9.12-15.23-15.88-25.91-18.19c-5.32-1.15-10.89-1.28-16.27-0.27
				C197.37,81.8,192.2,83.89,187.62,86.89z"/>
		</g>
		<circle id="XMLID_15_" class="st1" cx="211.84" cy="120.86" r="43.28"/>
		<circle id="XMLID_13_" class="st0" cx="210.84" cy="122.5" r="35.4"/>
		<circle id="XMLID_12_" class="st2" cx="211.03" cy="120.86" r="33.75"/>
	</g>
	<path id="XMLID_10_" class="st0" d="M205.26,94.12c0,0,16.07-3.49,22.01,6.64L205.26,94.12z"/>
</g>
<path class="st0" d="M1187.51,224.51v3.15H835.16c-2.1-0.48-3.82-1.63-5.16-3.15c-1.53-1.72-2.39-3.92-2.39-6.31v-36.7l10.42-0.29
	l9.17,0.38v42.91H1187.51z"/>
<path class="st2" d="M847.2,175.87v5.73l-9.17-0.38l-10.42,0.29v-5.64c0-5.35,4.4-9.75,9.75-9.75
	C842.81,166.12,847.2,170.51,847.2,175.87z"/>
<g id="XMLID_5_">
	<g id="XMLID_7_">
		<polygon id="XMLID_8_" class="st1" points="872,144.61 836.85,74.21 804.8,144.61 		"/>
	</g>
	<g id="XMLID_6_">
		<polygon class="st1" points="891.55,183.7 847.2,181.6 838.03,181.22 827.61,181.51 787.38,182.75 800.47,154.08 876.73,154.08 		
			"/>
	</g>
</g>
<g>
	<path class="st1" d="M921.66,180.91V79.3h68.72v19.38h-43.33v17.81h39.92v19.38h-39.92v25.66h43.33v19.38H921.66z"/>
	<path class="st1" d="M1051.44,182.89c-15.24,0-27.34-4.61-36.3-13.82c-8.96-9.21-13.44-22.17-13.44-38.86
		c0-16.1,4.49-28.94,13.48-38.52c8.98-9.58,21.1-14.36,36.34-14.36c4.05,0,7.69,0.23,10.92,0.68c3.23,0.46,6.32,1.09,9.28,1.91
		c2.32,0.68,4.84,1.62,7.57,2.8c2.73,1.18,4.94,2.21,6.62,3.07v24.22h-2.59c-1.23-1.09-2.78-2.4-4.64-3.92
		c-1.87-1.52-3.98-3.01-6.35-4.47c-2.37-1.46-4.97-2.7-7.81-3.72c-2.84-1.02-5.81-1.54-8.9-1.54c-3.69,0-7.06,0.58-10.13,1.74
		s-5.99,3.17-8.77,6.04c-2.55,2.59-4.63,6.1-6.24,10.51c-1.62,4.41-2.42,9.62-2.42,15.63c0,6.32,0.84,11.63,2.52,15.93
		c1.68,4.3,3.89,7.77,6.62,10.41c2.64,2.55,5.58,4.39,8.84,5.53c3.25,1.14,6.49,1.71,9.72,1.71c3.37,0,6.57-0.56,9.62-1.67
		c3.05-1.11,5.62-2.35,7.71-3.72c2.27-1.41,4.28-2.84,6-4.3c1.73-1.46,3.23-2.75,4.5-3.89h2.32v23.88
		c-1.87,0.86-4.03,1.85-6.48,2.97c-2.46,1.12-4.98,2.06-7.57,2.83c-3.18,0.96-6.17,1.68-8.94,2.18
		C1060.13,182.64,1056.31,182.89,1051.44,182.89z"/>
	<path class="st1" d="M1186.69,180.91h-25.52v-45.04h-34.73v45.04h-25.52V79.3h25.52v37.19h34.73V79.3h25.52V180.91z"/>
</g>
<g>
	<g>
		<path class="st0" d="M867.17,215.05v-11.64h8.39v1.37h-6.85v3.56h6.42v1.37h-6.42v3.96h7.12v1.37H867.17z"/>
		<path class="st0" d="M887.38,215.05v-10.27h-3.82v-1.37h9.19v1.37h-3.84v10.27H887.38z"/>
		<path class="st0" d="M900.29,211.31l1.45-0.13c0.07,0.58,0.23,1.06,0.48,1.43c0.25,0.37,0.64,0.67,1.17,0.91
			c0.53,0.23,1.12,0.35,1.78,0.35c0.58,0,1.1-0.09,1.55-0.26s0.78-0.41,1-0.72c0.22-0.3,0.33-0.64,0.33-1
			c0-0.37-0.11-0.68-0.32-0.96s-0.56-0.5-1.04-0.69c-0.31-0.12-1-0.31-2.07-0.57c-1.07-0.26-1.81-0.5-2.24-0.73
			c-0.55-0.29-0.97-0.65-1.24-1.08c-0.27-0.43-0.41-0.92-0.41-1.45c0-0.59,0.17-1.14,0.5-1.65c0.33-0.51,0.82-0.9,1.46-1.16
			c0.64-0.26,1.35-0.4,2.13-0.4c0.86,0,1.62,0.14,2.28,0.42c0.66,0.28,1.16,0.69,1.52,1.23c0.35,0.54,0.54,1.15,0.57,1.83
			l-1.47,0.11c-0.08-0.74-0.35-1.29-0.8-1.67c-0.46-0.38-1.13-0.56-2.02-0.56c-0.93,0-1.61,0.17-2.03,0.51
			c-0.42,0.34-0.64,0.75-0.64,1.24c0,0.42,0.15,0.76,0.45,1.03c0.3,0.27,1.07,0.55,2.31,0.83c1.25,0.28,2.1,0.53,2.57,0.74
			c0.67,0.31,1.17,0.71,1.5,1.19c0.32,0.48,0.48,1.03,0.48,1.66c0,0.62-0.18,1.2-0.53,1.75c-0.35,0.55-0.86,0.97-1.52,1.28
			s-1.41,0.46-2.24,0.46c-1.05,0-1.93-0.15-2.64-0.46c-0.71-0.31-1.27-0.77-1.67-1.39C900.52,212.79,900.31,212.09,900.29,211.31z"
			/>
		<path class="st0" d="M937.37,210.97l1.54,0.39c-0.32,1.27-0.9,2.23-1.74,2.89s-1.86,1-3.07,1c-1.25,0-2.27-0.26-3.05-0.77
			s-1.38-1.25-1.79-2.22c-0.41-0.97-0.61-2.01-0.61-3.12c0-1.21,0.23-2.27,0.69-3.17c0.46-0.9,1.12-1.59,1.97-2.06
			s1.79-0.7,2.81-0.7c1.16,0,2.14,0.3,2.93,0.89c0.79,0.59,1.34,1.43,1.65,2.5l-1.51,0.36c-0.27-0.85-0.66-1.46-1.17-1.85
			s-1.16-0.58-1.93-0.58c-0.89,0-1.64,0.21-2.24,0.64s-1.02,1-1.26,1.73c-0.24,0.72-0.36,1.47-0.36,2.24c0,0.99,0.14,1.85,0.43,2.59
			c0.29,0.74,0.73,1.29,1.34,1.66s1.26,0.55,1.97,0.55c0.86,0,1.59-0.25,2.18-0.75C936.75,212.69,937.15,211.95,937.37,210.97z"/>
		<path class="st0" d="M947.3,215.05v-11.64h5.14c1.03,0,1.82,0.1,2.36,0.31s0.97,0.58,1.29,1.11c0.32,0.53,0.48,1.11,0.48,1.75
			c0,0.83-0.27,1.52-0.8,2.09c-0.53,0.57-1.36,0.93-2.47,1.08c0.41,0.2,0.71,0.39,0.93,0.58c0.45,0.41,0.87,0.93,1.27,1.55
			l2.02,3.17h-1.93l-1.54-2.42c-0.45-0.7-0.82-1.23-1.11-1.6c-0.29-0.37-0.55-0.63-0.78-0.78s-0.46-0.25-0.7-0.31
			c-0.17-0.04-0.46-0.06-0.85-0.06h-1.78v5.17H947.3z M948.83,208.55h3.3c0.7,0,1.25-0.07,1.65-0.22s0.7-0.38,0.9-0.7
			c0.21-0.32,0.31-0.67,0.31-1.04c0-0.55-0.2-1-0.6-1.36s-1.03-0.53-1.89-0.53h-3.67V208.55z"/>
		<path class="st0" d="M965.49,215.05v-11.64h8.39v1.37h-6.85v3.56h6.42v1.37h-6.42v3.96h7.12v1.37H965.49z"/>
		<path class="st0" d="M981.48,215.05l4.46-11.64h1.65l4.75,11.64h-1.75l-1.35-3.53h-4.85l-1.27,3.53H981.48z M984.82,210.27h3.93
			l-1.21-3.22c-0.37-0.98-0.64-1.78-0.82-2.41c-0.15,0.75-0.36,1.49-0.63,2.22L984.82,210.27z"/>
		<path class="st0" d="M1001.79,215.05v-10.27h-3.82v-1.37h9.19v1.37h-3.84v10.27H1001.79z"/>
		<path class="st0" d="M1015.25,215.05v-11.64h8.39v1.37h-6.85v3.56h6.42v1.37h-6.42v3.96h7.12v1.37H1015.25z"/>
		<path class="st0" d="M1046.16,215.05v-10.27h-3.82v-1.37h9.19v1.37h-3.84v10.27H1046.16z"/>
		<path class="st0" d="M1058.83,209.39c0-1.93,0.52-3.45,1.55-4.54c1.03-1.09,2.37-1.64,4-1.64c1.07,0,2.04,0.26,2.9,0.77
			c0.86,0.51,1.52,1.23,1.97,2.15c0.45,0.92,0.68,1.96,0.68,3.12c0,1.18-0.24,2.24-0.71,3.17s-1.15,1.64-2.02,2.12
			c-0.87,0.48-1.81,0.72-2.82,0.72c-1.09,0-2.07-0.26-2.93-0.79c-0.86-0.53-1.51-1.25-1.95-2.17
			C1059.05,211.38,1058.83,210.41,1058.83,209.39z M1060.41,209.41c0,1.4,0.38,2.51,1.13,3.32c0.75,0.81,1.7,1.21,2.83,1.21
			c1.16,0,2.11-0.41,2.85-1.22c0.75-0.82,1.12-1.97,1.12-3.47c0-0.95-0.16-1.77-0.48-2.48c-0.32-0.71-0.79-1.25-1.4-1.64
			c-0.61-0.39-1.3-0.58-2.07-0.58c-1.09,0-2.02,0.38-2.8,1.12S1060.41,207.66,1060.41,209.41z"/>
		<path class="st0" d="M1078.33,215.05v-11.64h2.31l2.75,8.24c0.25,0.77,0.44,1.34,0.55,1.72c0.13-0.42,0.34-1.05,0.62-1.87
			l2.78-8.1h2.06v11.64h-1.48v-9.74l-3.37,9.74h-1.38l-3.35-9.91v9.91H1078.33z"/>
		<path class="st0" d="M1097.9,209.39c0-1.93,0.52-3.45,1.55-4.54c1.03-1.09,2.37-1.64,4-1.64c1.07,0,2.04,0.26,2.9,0.77
			c0.86,0.51,1.52,1.23,1.97,2.15c0.45,0.92,0.68,1.96,0.68,3.12c0,1.18-0.24,2.24-0.71,3.17s-1.15,1.64-2.02,2.12
			c-0.87,0.48-1.81,0.72-2.82,0.72c-1.09,0-2.07-0.26-2.93-0.79c-0.86-0.53-1.51-1.25-1.95-2.17
			C1098.12,211.38,1097.9,210.41,1097.9,209.39z M1099.48,209.41c0,1.4,0.38,2.51,1.13,3.32c0.75,0.81,1.7,1.21,2.83,1.21
			c1.16,0,2.11-0.41,2.85-1.22c0.75-0.82,1.12-1.97,1.12-3.47c0-0.95-0.16-1.77-0.48-2.48c-0.32-0.71-0.79-1.25-1.4-1.64
			c-0.61-0.39-1.3-0.58-2.07-0.58c-1.09,0-2.02,0.38-2.8,1.12S1099.48,207.66,1099.48,209.41z"/>
		<path class="st0" d="M1117.47,215.05v-11.64h5.14c1.03,0,1.82,0.1,2.36,0.31s0.97,0.58,1.29,1.11c0.32,0.53,0.48,1.11,0.48,1.75
			c0,0.83-0.27,1.52-0.8,2.09c-0.53,0.57-1.36,0.93-2.47,1.08c0.41,0.2,0.71,0.39,0.93,0.58c0.45,0.41,0.87,0.93,1.27,1.55
			l2.02,3.17h-1.93l-1.54-2.42c-0.45-0.7-0.82-1.23-1.11-1.6c-0.29-0.37-0.55-0.63-0.78-0.78s-0.46-0.25-0.7-0.31
			c-0.17-0.04-0.46-0.06-0.85-0.06h-1.78v5.17H1117.47z M1119.01,208.55h3.3c0.7,0,1.25-0.07,1.65-0.22s0.7-0.38,0.9-0.7
			c0.21-0.32,0.31-0.67,0.31-1.04c0-0.55-0.2-1-0.6-1.36s-1.03-0.53-1.89-0.53h-3.67V208.55z"/>
		<path class="st0" d="M1135.66,215.05v-11.64h5.14c1.03,0,1.82,0.1,2.36,0.31s0.97,0.58,1.29,1.11c0.32,0.53,0.48,1.11,0.48,1.75
			c0,0.83-0.27,1.52-0.8,2.09c-0.53,0.57-1.36,0.93-2.47,1.08c0.41,0.2,0.71,0.39,0.93,0.58c0.45,0.41,0.87,0.93,1.27,1.55
			l2.02,3.17h-1.93l-1.54-2.42c-0.45-0.7-0.82-1.23-1.11-1.6c-0.29-0.37-0.55-0.63-0.78-0.78s-0.46-0.25-0.7-0.31
			c-0.17-0.04-0.46-0.06-0.85-0.06h-1.78v5.17H1135.66z M1137.19,208.55h3.3c0.7,0,1.25-0.07,1.65-0.22s0.7-0.38,0.9-0.7
			c0.21-0.32,0.31-0.67,0.31-1.04c0-0.55-0.2-1-0.6-1.36s-1.03-0.53-1.89-0.53h-3.67V208.55z"/>
		<path class="st0" d="M1153.35,209.39c0-1.93,0.52-3.45,1.55-4.54c1.03-1.09,2.37-1.64,4-1.64c1.07,0,2.04,0.26,2.9,0.77
			c0.86,0.51,1.52,1.23,1.97,2.15c0.45,0.92,0.68,1.96,0.68,3.12c0,1.18-0.24,2.24-0.71,3.17s-1.15,1.64-2.02,2.12
			c-0.87,0.48-1.81,0.72-2.82,0.72c-1.09,0-2.07-0.26-2.93-0.79c-0.86-0.53-1.51-1.25-1.95-2.17
			C1153.57,211.38,1153.35,210.41,1153.35,209.39z M1154.94,209.41c0,1.4,0.38,2.51,1.13,3.32c0.75,0.81,1.7,1.21,2.83,1.21
			c1.16,0,2.11-0.41,2.85-1.22c0.75-0.82,1.12-1.97,1.12-3.47c0-0.95-0.16-1.77-0.48-2.48c-0.32-0.71-0.79-1.25-1.4-1.64
			c-0.61-0.39-1.3-0.58-2.07-0.58c-1.09,0-2.02,0.38-2.8,1.12S1154.94,207.66,1154.94,209.41z"/>
		<path class="st0" d="M1174.93,215.05l-3.08-11.64h1.57l1.76,7.63c0.19,0.8,0.35,1.59,0.49,2.38c0.3-1.24,0.47-1.96,0.52-2.15
			l2.21-7.86h1.85l1.66,5.89c0.42,1.46,0.72,2.83,0.9,4.12c0.15-0.74,0.34-1.58,0.58-2.53l1.82-7.48h1.54l-3.18,11.64h-1.48
			l-2.45-8.87c-0.21-0.74-0.33-1.2-0.36-1.37c-0.12,0.54-0.23,0.99-0.34,1.37l-2.46,8.87H1174.93z"/>
	</g>
</g>
</svg>
