<svg xmlns="http://www.w3.org/2000/svg" xmlns:xlink="http://www.w3.org/1999/xlink" width="42.953" height="28.236" viewBox="0 0 42.953 28.236">
  <defs>
    <linearGradient id="linear-gradient" x1="0.694" y1="0.274" x2="0.071" y2="1" gradientUnits="objectBoundingBox">
      <stop offset="0" stop-color="#fbcf0a"/>
      <stop offset="1" stop-color="#fba505"/>
    </linearGradient>
    <linearGradient id="linear-gradient-2" x1="1.046" y1="-0.04" x2="-0.585" y2="2.367" xlink:href="#linear-gradient"/>
    <linearGradient id="linear-gradient-3" y1="0.5" x2="1" y2="0.5" gradientUnits="objectBoundingBox">
      <stop offset="0" stop-color="#f28500"/>
      <stop offset="1" stop-color="#fba905"/>
    </linearGradient>
    <linearGradient id="linear-gradient-5" x1="1.046" y1="-0.04" x2="-0.585" y2="2.367" xlink:href="#linear-gradient"/>
    <linearGradient id="linear-gradient-7" x1="0.694" y1="0.274" x2="0.071" y2="1" xlink:href="#linear-gradient"/>
    <linearGradient id="linear-gradient-8" x1="1.046" y1="-0.04" x2="-0.585" y2="2.367" xlink:href="#linear-gradient"/>
    <linearGradient id="linear-gradient-11" x1="1.046" y1="-0.04" x2="-0.585" y2="2.367" xlink:href="#linear-gradient"/>
    <linearGradient id="linear-gradient-15" x1="0.577" y1="0.855" x2="0.165" y2="0.077" xlink:href="#linear-gradient-3"/>
    <linearGradient id="linear-gradient-16" x1="0.304" y1="0.049" x2="0.66" y2="0.868" xlink:href="#linear-gradient"/>
    <linearGradient id="linear-gradient-17" x1="-0.299" y1="-0.817" x2="1.039" y2="1.585" xlink:href="#linear-gradient"/>
    <radialGradient id="radial-gradient" cx="0.511" cy="0.5" r="0.388" gradientTransform="matrix(0.989, 0.957, -0.246, 0.022, 2.207, 31.827)" gradientUnits="objectBoundingBox">
      <stop offset="0" stop-color="#ffffab"/>
      <stop offset="0.116" stop-color="#edcc9e"/>
      <stop offset="0.125" stop-color="#e6c595"/>
      <stop offset="0.183" stop-color="#bf9f64"/>
      <stop offset="0.234" stop-color="#a38340"/>
      <stop offset="0.275" stop-color="#92732a"/>
      <stop offset="0.302" stop-color="#8c6d23"/>
      <stop offset="0.367" stop-color="#675019"/>
      <stop offset="0.437" stop-color="#473711"/>
      <stop offset="0.514" stop-color="#2d230b"/>
      <stop offset="0.598" stop-color="#191306"/>
      <stop offset="0.693" stop-color="#0a0802"/>
      <stop offset="0.809" stop-color="#020100"/>
      <stop offset="1"/>
    </radialGradient>
    <radialGradient id="radial-gradient-2" cx="0.5" cy="0.489" r="1.397" gradientTransform="matrix(-0.281, 0.275, -0.005, -0.065, -7.995, 36.82)" xlink:href="#radial-gradient"/>
    <radialGradient id="radial-gradient-3" cx="0.505" cy="0.502" r="0.427" gradientTransform="matrix(-0.844, 0.881, -0.118, -0.035, 4.43, 48.771)" xlink:href="#radial-gradient"/>
    <radialGradient id="radial-gradient-4" cx="0.503" cy="0.496" r="0.801" gradientTransform="matrix(-0.49, -0.486, 0.018, -0.059, -1.694, 87.68)" xlink:href="#radial-gradient"/>
    <radialGradient id="radial-gradient-5" cx="0.504" cy="0.503" r="0.436" gradientTransform="matrix(-0.828, 0.862, -0.106, -0.038, -68.351, 64.41)" xlink:href="#radial-gradient"/>
    <radialGradient id="radial-gradient-6" cx="0.503" cy="0.496" r="0.751" gradientTransform="matrix(-0.522, -0.519, 0.022, -0.058, -37.126, 38.541)" xlink:href="#radial-gradient"/>
    <radialGradient id="radial-gradient-7" cx="0.5" cy="0.513" r="1.525" gradientTransform="matrix(-0.244, 0.252, -0.005, -0.073, -0.464, 428.049)" xlink:href="#radial-gradient"/>
    <radialGradient id="radial-gradient-8" cx="0.513" cy="0.501" r="0.404" gradientTransform="matrix(-0.942, -0.971, 0.262, -0.016, -43.921, 93.618)" xlink:href="#radial-gradient"/>
  </defs>
  <g id="Group_846" data-name="Group 846" transform="translate(-22.562 -163.971)">
    <g id="Group_826" data-name="Group 826" transform="translate(39.737 178.46)">
      <path id="Path_510" data-name="Path 510" d="M132.988,262.989v3.431c0,1.227-1.24,2.454-3.724,3.4a30.076,30.076,0,0,1-18.229.038c-2.548-.944-3.824-2.188-3.824-3.433v-3.431c0,1.244,1.276,2.489,3.824,3.432a30.074,30.074,0,0,0,18.229-.037C131.748,265.443,132.988,264.216,132.988,262.989Z" transform="translate(-107.211 -258.3)" fill="#d96d00"/>
      <g id="Group_824" data-name="Group 824" transform="translate(0.381 5.653)" style="mix-blend-mode: multiply;isolation: isolate">
        <path id="Path_512" data-name="Path 512" d="M146.918,284.054l-.2-.03v3.432l.2.029Z" transform="translate(-139.081 -280.72)" fill="#f5c491"/>
        <path id="Path_513" data-name="Path 513" d="M142.217,283.255l-.2-.037v3.431l.2.038Z" transform="translate(-135.334 -280.078)" fill="#f5c491"/>
        <path id="Path_514" data-name="Path 514" d="M137.512,282.272l-.2-.047v3.431l.2.047Z" transform="translate(-131.584 -279.286)" fill="#f5c491"/>
        <path id="Path_515" data-name="Path 515" d="M161.029,285.5l-.2-.012v3.432l.2.013Z" transform="translate(-150.329 -281.889)" fill="#f5c491"/>
        <path id="Path_516" data-name="Path 516" d="M156.325,285.165l-.2-.016v3.431l.2.017Z" transform="translate(-146.579 -281.617)" fill="#f5c491"/>
        <path id="Path_517" data-name="Path 517" d="M165.731,285.707l-.2-.005v3.432l.2.005Z" transform="translate(-154.077 -282.058)" fill="#f5c491"/>
        <path id="Path_518" data-name="Path 518" d="M151.622,284.683l-.2-.024v3.432l.2.024Z" transform="translate(-142.831 -281.226)" fill="#f5c491"/>
        <path id="Path_519" data-name="Path 519" d="M127.9,282.99l.2.068v-3.432l-.2-.068Z" transform="translate(-124.085 -277.161)" fill="#f5c491"/>
        <path id="Path_520" data-name="Path 520" d="M222.174,275.527c-.067.036-.133.072-.2.108v3.431c.07-.035.136-.072.2-.108Z" transform="translate(-199.068 -273.947)" fill="#f5c491"/>
        <path id="Path_521" data-name="Path 521" d="M231.378,271.442a3.252,3.252,0,0,0,.2-.269v-3.431a3.26,3.26,0,0,1-.2.269Z" transform="translate(-206.565 -267.741)" fill="#f5c491"/>
        <path id="Path_522" data-name="Path 522" d="M217.268,281.289c.068-.027.137-.054.2-.082v-3.431c-.066.028-.135.055-.2.082Z" transform="translate(-195.318 -275.74)" fill="#f5c491"/>
        <path id="Path_523" data-name="Path 523" d="M132.808,281.077l-.2-.057v3.432l.2.057Z" transform="translate(-127.834 -278.326)" fill="#f5c491"/>
        <path id="Path_524" data-name="Path 524" d="M226.878,272.539c-.065.049-.132.1-.2.147v3.432c.07-.049.137-.1.2-.147Z" transform="translate(-202.817 -271.565)" fill="#f5c491"/>
        <path id="Path_525" data-name="Path 525" d="M203.36,282.225c-.068.016-.134.032-.2.047V285.7l.2-.047Z" transform="translate(-184.071 -279.286)" fill="#f5c491"/>
        <path id="Path_526" data-name="Path 526" d="M113.791,275.97c.066.049.132.1.2.148v-3.431c-.07-.049-.137-.1-.2-.148Z" transform="translate(-112.837 -271.565)" fill="#f5c491"/>
        <path id="Path_527" data-name="Path 527" d="M208.065,281.023l-.2.056v3.431l.2-.055Z" transform="translate(-187.822 -278.328)" fill="#f5c491"/>
        <path id="Path_528" data-name="Path 528" d="M212.767,279.566c-.067.023-.135.044-.2.066v3.431c.067-.023.136-.043.2-.066Z" transform="translate(-191.57 -277.167)" fill="#f5c491"/>
        <path id="Path_529" data-name="Path 529" d="M118.7,275.635c-.07-.036-.136-.072-.2-.108v3.432c.067.036.133.072.2.108Z" transform="translate(-116.586 -273.947)" fill="#f5c491"/>
        <path id="Path_530" data-name="Path 530" d="M109.088,271.176a3.077,3.077,0,0,0,.2.269v-3.431a3.108,3.108,0,0,1-.2-.269Z" transform="translate(-109.088 -267.744)" fill="#f5c491"/>
        <path id="Path_531" data-name="Path 531" d="M170.436,289.214v-3.432h-.2v3.432h.2Z" transform="translate(-157.827 -282.121)" fill="#f5c491"/>
        <path id="Path_532" data-name="Path 532" d="M123.4,277.854l-.2-.084V281.2l.2.084Z" transform="translate(-120.336 -275.735)" fill="#f5c491"/>
        <path id="Path_533" data-name="Path 533" d="M179.842,285.491l-.2.012v3.432l.2-.012Z" transform="translate(-165.325 -281.889)" fill="#f5c491"/>
        <path id="Path_534" data-name="Path 534" d="M175.139,285.7l-.2.006v3.431l.2-.006Z" transform="translate(-161.576 -282.056)" fill="#f5c491"/>
        <path id="Path_535" data-name="Path 535" d="M198.656,283.215l-.2.038v3.432l.2-.038Z" transform="translate(-180.322 -280.075)" fill="#f5c491"/>
        <path id="Path_536" data-name="Path 536" d="M184.546,285.148l-.2.016V288.6l.2-.017Z" transform="translate(-169.075 -281.616)" fill="#f5c491"/>
        <path id="Path_537" data-name="Path 537" d="M189.25,284.659l-.2.025v3.431l.2-.024Z" transform="translate(-172.824 -281.226)" fill="#f5c491"/>
        <path id="Path_538" data-name="Path 538" d="M193.954,284.026l-.2.029v3.431l.2-.028Z" transform="translate(-176.574 -280.722)" fill="#f5c491"/>
      </g>
      <path id="Path_539" data-name="Path 539" d="M129.162,241.273a30.075,30.075,0,0,0-18.227.038c-5,1.9-4.959,4.953.1,6.828a30.083,30.083,0,0,0,18.229-.038C134.269,246.205,134.223,243.148,129.162,241.273Z" transform="translate(-107.21 -239.878)" fill="url(#linear-gradient)"/>
      <path id="Path_540" data-name="Path 540" d="M129.176,243.905a19.212,19.212,0,0,0-2.509-.725l-18.823,2.681c-1.4,1.638-.409,3.5,2.964,4.816l22.183-3.159C133.12,246.214,131.847,244.895,129.176,243.905Z" transform="translate(-107.224 -242.51)" fill="#fff" opacity="0.3" style="mix-blend-mode: overlay;isolation: isolate"/>
      <path id="Path_541" data-name="Path 541" d="M111.047,267.833a30.081,30.081,0,0,0,18.229-.037c2.5-.948,3.742-2.186,3.724-3.422v0c0-.033-.005-.066-.008-.1-.08,1.186-1.315,2.363-3.716,3.273a30.083,30.083,0,0,1-18.229.038c-2.465-.914-3.737-2.108-3.817-3.312C107.14,265.559,108.412,266.857,111.047,267.833Z" transform="translate(-107.223 -259.323)" fill="#fff" opacity="0.6" style="mix-blend-mode: overlay;isolation: isolate"/>
      <path id="Path_542" data-name="Path 542" d="M139.824,247.019a22.358,22.358,0,0,0-13.552.028c-3.721,1.41-3.688,3.683.076,5.076a22.35,22.35,0,0,0,13.55-.029C143.622,250.686,143.587,248.413,139.824,247.019Z" transform="translate(-120.198 -244.743)" fill="#f28500"/>
      <path id="Path_543" data-name="Path 543" d="M126.282,247.63a22.353,22.353,0,0,1,13.552-.028c1.576.584,2.5,1.322,2.761,2.086.377-1.075-.545-2.2-2.761-3.022a22.362,22.362,0,0,0-13.552.028c-2.162.819-3.054,1.93-2.686,2.991C123.859,248.935,124.753,248.21,126.282,247.63Z" transform="translate(-120.208 -244.462)" fill="#fff" opacity="0.6" style="mix-blend-mode: overlay;isolation: isolate"/>
      <path id="Path_544" data-name="Path 544" d="M126.282,247.983a22.358,22.358,0,0,1,13.552-.028c1.576.584,2.5,1.322,2.761,2.086.377-1.075-.545-2.2-2.761-3.022a22.358,22.358,0,0,0-13.552.028c-2.162.819-3.054,1.93-2.686,2.99C123.859,249.288,124.753,248.563,126.282,247.983Z" transform="translate(-120.208 -244.743)" fill="#d96d00"/>
      <path id="Path_545" data-name="Path 545" d="M154.632,259.048h0v-.641l-3.6-1.1a.39.39,0,0,0-.268,0l-5.979,1.617v.675c0,.017.022.035.062.05l1.412.523a.368.368,0,0,0,.133.023.376.376,0,0,0,.133-.023l1.988-.753a.126.126,0,0,1,.089,0l.948.35a6.156,6.156,0,0,0,1.4.333,6.961,6.961,0,0,0,.852.053q.314,0,.622-.029a5.037,5.037,0,0,0,1.321-.293,1.764,1.764,0,0,0,.8-.5A.411.411,0,0,0,154.632,259.048Zm-2.6.183a1.691,1.691,0,0,1-.6.1h-.058a2.171,2.171,0,0,1-.7-.132l-.751-.278c-.029-.011-.029-.022,0-.033l1.184-.448a.125.125,0,0,1,.044-.009.135.135,0,0,1,.045.009l.749.278q.331.122.355.264C152.318,259.073,152.229,259.157,152.036,259.231Z" transform="translate(-137.16 -253.754)" fill="#d96d00"/>
      <path id="Path_546" data-name="Path 546" d="M154.512,255.438a2.1,2.1,0,0,0-.865-.51l-2.616-.969a.381.381,0,0,0-.135-.023.371.371,0,0,0-.133.024l-5.92,2.242c-.04.016-.06.032-.06.05s.022.034.062.049l1.412.523a.394.394,0,0,0,.266,0l1.988-.754a.133.133,0,0,1,.089,0l.948.351a6.155,6.155,0,0,0,1.4.333,6.925,6.925,0,0,0,.852.053q.314,0,.622-.029a5.053,5.053,0,0,0,1.321-.292,1.764,1.764,0,0,0,.8-.5A.4.4,0,0,0,154.512,255.438Zm-2.476.442a1.687,1.687,0,0,1-.6.1h-.058a2.172,2.172,0,0,1-.7-.132l-.751-.278c-.029-.011-.029-.022,0-.033l1.184-.449a.125.125,0,0,1,.044-.009.135.135,0,0,1,.045.009l.749.278q.331.122.355.264C152.318,255.722,152.229,255.807,152.036,255.88Z" transform="translate(-137.16 -251.084)" fill="url(#linear-gradient-2)"/>
      <g id="Group_825" data-name="Group 825" transform="translate(7.623 3.938)" opacity="0.6" style="mix-blend-mode: overlay;isolation: isolate">
        <path id="Path_547" data-name="Path 547" d="M172.059,259.573l-.749-.278a.136.136,0,0,0-.045-.009.125.125,0,0,0-.044.009l-1.184.449c-.029.011-.029.022,0,.032l.032.012,1.152-.436a.124.124,0,0,1,.044-.009.135.135,0,0,1,.045.009l.749.278c.212.078.327.163.35.253a.124.124,0,0,0,.005-.046Q172.39,259.695,172.059,259.573Z" transform="translate(-164.895 -259.286)" fill="#fff"/>
        <path id="Path_548" data-name="Path 548" d="M154.541,262.854a1.766,1.766,0,0,1-.8.5,5.055,5.055,0,0,1-1.321.292q-.309.029-.622.029a7,7,0,0,1-.852-.053,6.144,6.144,0,0,1-1.4-.333l-.948-.35a.121.121,0,0,0-.089,0l-1.988.753a.379.379,0,0,1-.133.023.371.371,0,0,1-.133-.023l-1.412-.523a.163.163,0,0,1-.041-.021c-.013.01-.02.019-.02.029s.022.034.062.049l1.412.523a.393.393,0,0,0,.266,0L148.51,263a.133.133,0,0,1,.089,0l.948.351a6.154,6.154,0,0,0,1.4.333,6.925,6.925,0,0,0,.852.053q.314,0,.622-.029a5.055,5.055,0,0,0,1.321-.292,1.764,1.764,0,0,0,.8-.5.411.411,0,0,0,.091-.286A.433.433,0,0,1,154.541,262.854Z" transform="translate(-144.783 -261.947)" fill="#fff"/>
      </g>
    </g>
    <g id="Group_829" data-name="Group 829" transform="translate(39.737 174.838)">
      <path id="Path_549" data-name="Path 549" d="M132.988,245.136v3.431c0,1.227-1.24,2.454-3.724,3.395a30.075,30.075,0,0,1-18.229.038c-2.548-.944-3.824-2.188-3.824-3.433v-3.432c0,1.245,1.276,2.489,3.824,3.433a30.083,30.083,0,0,0,18.229-.038C131.748,247.59,132.988,246.363,132.988,245.136Z" transform="translate(-107.211 -240.447)" fill="#d96d00"/>
      <path id="Path_550" data-name="Path 550" d="M132.988,244.139v3.432c0,1.227-1.24,2.454-3.724,3.395a30.079,30.079,0,0,1-18.229.038c-2.548-.944-3.824-2.188-3.824-3.433v-3.431c0,1.245,1.276,2.488,3.824,3.433a30.074,30.074,0,0,0,18.229-.038C131.748,246.593,132.988,245.366,132.988,244.139Z" transform="translate(-107.211 -239.652)" fill="url(#linear-gradient-3)"/>
      <g id="Group_827" data-name="Group 827" transform="translate(0.381 5.653)" style="mix-blend-mode: multiply;isolation: isolate">
        <path id="Path_551" data-name="Path 551" d="M146.918,266.2l-.2-.029V269.6l.2.029Z" transform="translate(-139.081 -262.869)" fill="#f5c491"/>
        <path id="Path_552" data-name="Path 552" d="M142.217,265.4l-.2-.037V268.8l.2.038Z" transform="translate(-135.334 -262.225)" fill="#f5c491"/>
        <path id="Path_553" data-name="Path 553" d="M137.512,264.418l-.2-.047V267.8l.2.047Z" transform="translate(-131.584 -261.432)" fill="#f5c491"/>
        <path id="Path_554" data-name="Path 554" d="M161.029,267.652l-.2-.012v3.431l.2.012Z" transform="translate(-150.329 -264.038)" fill="#f5c491"/>
        <path id="Path_555" data-name="Path 555" d="M156.325,267.315l-.2-.016v3.431l.2.016Z" transform="translate(-146.579 -263.766)" fill="#f5c491"/>
        <path id="Path_556" data-name="Path 556" d="M165.731,267.856l-.2-.005v3.431l.2.005Z" transform="translate(-154.077 -264.206)" fill="#f5c491"/>
        <path id="Path_557" data-name="Path 557" d="M151.622,266.83l-.2-.024v3.432l.2.024Z" transform="translate(-142.831 -263.373)" fill="#f5c491"/>
        <path id="Path_558" data-name="Path 558" d="M127.9,265.137l.2.068v-3.431l-.2-.068Z" transform="translate(-124.085 -259.308)" fill="#f5c491"/>
        <path id="Path_559" data-name="Path 559" d="M222.174,257.674c-.067.036-.133.072-.2.108v3.432c.07-.035.136-.072.2-.108Z" transform="translate(-199.068 -256.094)" fill="#f5c491"/>
        <path id="Path_560" data-name="Path 560" d="M231.378,253.589a3.192,3.192,0,0,0,.2-.27v-3.431a3.151,3.151,0,0,1-.2.269Z" transform="translate(-206.565 -249.888)" fill="#f5c491"/>
        <path id="Path_561" data-name="Path 561" d="M217.268,263.436c.068-.027.137-.054.2-.082v-3.432c-.066.028-.135.055-.2.082Z" transform="translate(-195.318 -257.887)" fill="#f5c491"/>
        <path id="Path_562" data-name="Path 562" d="M132.808,263.225l-.2-.057V266.6l.2.057Z" transform="translate(-127.834 -260.473)" fill="#f5c491"/>
        <path id="Path_563" data-name="Path 563" d="M226.878,254.689c-.065.049-.132.1-.2.147v3.432c.07-.049.137-.1.2-.147Z" transform="translate(-202.817 -253.715)" fill="#f5c491"/>
        <path id="Path_564" data-name="Path 564" d="M203.36,264.373c-.068.016-.134.032-.2.047v3.432l.2-.048Z" transform="translate(-184.071 -261.434)" fill="#f5c491"/>
        <path id="Path_565" data-name="Path 565" d="M113.791,258.117c.066.05.132.1.2.149v-3.432c-.07-.049-.137-.1-.2-.148Z" transform="translate(-112.837 -253.712)" fill="#f5c491"/>
        <path id="Path_566" data-name="Path 566" d="M208.065,263.172l-.2.055v3.432l.2-.055Z" transform="translate(-187.822 -260.477)" fill="#f5c491"/>
        <path id="Path_567" data-name="Path 567" d="M212.767,261.714l-.2.066v3.431l.2-.066Z" transform="translate(-191.57 -259.314)" fill="#f5c491"/>
        <path id="Path_568" data-name="Path 568" d="M118.7,257.782c-.07-.036-.136-.071-.2-.108v3.432c.067.036.133.072.2.108Z" transform="translate(-116.586 -256.094)" fill="#f5c491"/>
        <path id="Path_569" data-name="Path 569" d="M109.088,253.325a3.2,3.2,0,0,0,.2.269v-3.432a3.167,3.167,0,0,1-.2-.269Z" transform="translate(-109.088 -249.893)" fill="#f5c491"/>
        <path id="Path_570" data-name="Path 570" d="M170.436,271.361v-3.432h-.2v3.432h.2Z" transform="translate(-157.827 -264.268)" fill="#f5c491"/>
        <path id="Path_571" data-name="Path 571" d="M123.4,260l-.2-.084v3.431l.2.084Z" transform="translate(-120.336 -257.884)" fill="#f5c491"/>
        <path id="Path_572" data-name="Path 572" d="M179.842,267.64l-.2.012v3.431l.2-.011Z" transform="translate(-165.325 -264.038)" fill="#f5c491"/>
        <path id="Path_573" data-name="Path 573" d="M175.139,267.849l-.2.005v3.432l.2-.005Z" transform="translate(-161.576 -264.205)" fill="#f5c491"/>
        <path id="Path_574" data-name="Path 574" d="M198.656,265.364l-.2.038v3.431l.2-.038Z" transform="translate(-180.322 -262.224)" fill="#f5c491"/>
        <path id="Path_575" data-name="Path 575" d="M184.546,267.3l-.2.016v3.432l.2-.017Z" transform="translate(-169.075 -263.764)" fill="#f5c491"/>
        <path id="Path_576" data-name="Path 576" d="M189.25,266.806l-.2.025v3.432l.2-.025Z" transform="translate(-172.824 -263.373)" fill="#f5c491"/>
        <path id="Path_577" data-name="Path 577" d="M193.954,266.175l-.2.029v3.431l.2-.028Z" transform="translate(-176.574 -262.87)" fill="#f5c491"/>
      </g>
      <path id="Path_578" data-name="Path 578" d="M129.162,223.421a30.081,30.081,0,0,0-18.227.038c-5,1.9-4.959,4.953.1,6.828a30.08,30.08,0,0,0,18.229-.037C134.269,228.353,134.223,225.3,129.162,223.421Z" transform="translate(-107.21 -222.026)" fill="url(#linear-gradient)"/>
      <path id="Path_579" data-name="Path 579" d="M129.176,226.051a19.333,19.333,0,0,0-2.509-.725l-18.823,2.681c-1.4,1.638-.409,3.5,2.964,4.816l22.183-3.159C133.12,228.36,131.847,227.041,129.176,226.051Z" transform="translate(-107.224 -224.656)" fill="#fff" opacity="0.3" style="mix-blend-mode: overlay;isolation: isolate"/>
      <path id="Path_580" data-name="Path 580" d="M111.047,249.979a30.083,30.083,0,0,0,18.229-.038c2.5-.948,3.742-2.186,3.724-3.421v0c0-.033-.005-.066-.008-.1-.08,1.186-1.315,2.363-3.716,3.273a30.081,30.081,0,0,1-18.229.037c-2.465-.913-3.737-2.108-3.817-3.312C107.14,247.706,108.412,249,111.047,249.979Z" transform="translate(-107.223 -241.47)" fill="#fff" opacity="0.6" style="mix-blend-mode: overlay;isolation: isolate"/>
      <path id="Path_581" data-name="Path 581" d="M139.824,229.167a22.35,22.35,0,0,0-13.552.028c-3.721,1.41-3.688,3.683.076,5.076a22.348,22.348,0,0,0,13.55-.029C143.622,232.833,143.587,230.561,139.824,229.167Z" transform="translate(-120.198 -226.891)" fill="#f28500"/>
      <path id="Path_582" data-name="Path 582" d="M126.282,229.777a22.362,22.362,0,0,1,13.552-.028c1.576.584,2.5,1.322,2.761,2.086.377-1.075-.545-2.2-2.761-3.022a22.35,22.35,0,0,0-13.552.028c-2.162.819-3.054,1.93-2.686,2.991C123.859,231.081,124.753,230.356,126.282,229.777Z" transform="translate(-120.208 -226.609)" fill="#fff" opacity="0.6" style="mix-blend-mode: overlay;isolation: isolate"/>
      <path id="Path_583" data-name="Path 583" d="M126.282,230.131a22.36,22.36,0,0,1,13.552-.028c1.576.584,2.5,1.322,2.761,2.086.377-1.075-.545-2.2-2.761-3.022a22.35,22.35,0,0,0-13.552.028c-2.162.819-3.054,1.93-2.686,2.99C123.859,231.435,124.753,230.71,126.282,230.131Z" transform="translate(-120.208 -226.891)" fill="#d96d00"/>
      <path id="Path_584" data-name="Path 584" d="M154.632,241.2h0v-.641l-3.6-1.1a.4.4,0,0,0-.135-.023.371.371,0,0,0-.133.024l-5.979,1.617v.675c0,.018.022.035.062.049l1.412.522a.388.388,0,0,0,.266,0l1.988-.753a.127.127,0,0,1,.089,0l.948.351a6.157,6.157,0,0,0,1.4.333,7,7,0,0,0,.852.053q.314,0,.622-.029a5.055,5.055,0,0,0,1.321-.292,1.764,1.764,0,0,0,.8-.5A.411.411,0,0,0,154.632,241.2Zm-2.6.183a1.692,1.692,0,0,1-.6.1h-.058a2.168,2.168,0,0,1-.7-.132l-.751-.278c-.029-.011-.029-.022,0-.032l1.184-.449a.117.117,0,0,1,.044-.009.126.126,0,0,1,.045.009l.749.278q.331.122.355.264C152.318,241.223,152.229,241.307,152.036,241.381Z" transform="translate(-137.16 -235.903)" fill="#d96d00"/>
      <path id="Path_585" data-name="Path 585" d="M154.512,237.584a2.1,2.1,0,0,0-.865-.509l-2.616-.969a.39.39,0,0,0-.135-.023.371.371,0,0,0-.133.024l-5.92,2.242c-.04.016-.06.032-.06.05s.022.035.062.05l1.412.523a.377.377,0,0,0,.133.023.384.384,0,0,0,.133-.023l1.988-.754a.13.13,0,0,1,.089,0l.948.351a6.189,6.189,0,0,0,1.4.333,7.042,7.042,0,0,0,.852.052q.314,0,.622-.029a5.03,5.03,0,0,0,1.321-.292,1.761,1.761,0,0,0,.8-.5A.4.4,0,0,0,154.512,237.584Zm-2.476.443a1.692,1.692,0,0,1-.6.1h-.058a2.173,2.173,0,0,1-.7-.132l-.751-.278c-.029-.011-.029-.022,0-.032l1.184-.448a.112.112,0,0,1,.044-.009.122.122,0,0,1,.045.009l.749.278q.331.122.355.264C152.318,237.869,152.229,237.953,152.036,238.027Z" transform="translate(-137.16 -233.23)" fill="url(#linear-gradient-5)"/>
      <g id="Group_828" data-name="Group 828" transform="translate(7.623 3.938)" opacity="0.6" style="mix-blend-mode: overlay;isolation: isolate">
        <path id="Path_586" data-name="Path 586" d="M172.059,241.72l-.749-.278a.132.132,0,0,0-.045-.009.121.121,0,0,0-.044.009l-1.184.448c-.029.011-.029.022,0,.033l.032.012,1.152-.436a.112.112,0,0,1,.044-.009.122.122,0,0,1,.045.009l.749.278c.212.078.327.162.35.253a.12.12,0,0,0,.005-.046Q172.39,241.841,172.059,241.72Z" transform="translate(-164.895 -241.433)" fill="#fff"/>
        <path id="Path_587" data-name="Path 587" d="M154.541,245a1.769,1.769,0,0,1-.8.5,5.086,5.086,0,0,1-1.321.293c-.206.019-.413.029-.622.029a7.043,7.043,0,0,1-.852-.053,6.144,6.144,0,0,1-1.4-.334l-.948-.351a.127.127,0,0,0-.089,0l-1.988.753a.388.388,0,0,1-.266,0l-1.412-.522a.163.163,0,0,1-.041-.022c-.013.009-.02.018-.02.028s.022.035.062.05l1.412.523a.377.377,0,0,0,.133.023.385.385,0,0,0,.133-.023l1.988-.754a.13.13,0,0,1,.089,0l.948.351a6.188,6.188,0,0,0,1.4.333,7.042,7.042,0,0,0,.852.052q.314,0,.622-.029a5.03,5.03,0,0,0,1.321-.292,1.761,1.761,0,0,0,.8-.5.41.41,0,0,0,.091-.286A.435.435,0,0,1,154.541,245Z" transform="translate(-144.783 -244.095)" fill="#fff"/>
      </g>
    </g>
    <g id="Group_832" data-name="Group 832" transform="translate(39.737 171.215)">
      <path id="Path_588" data-name="Path 588" d="M132.988,227.284v3.431c0,1.227-1.24,2.454-3.724,3.395a30.072,30.072,0,0,1-18.229.038c-2.548-.944-3.824-2.188-3.824-3.433v-3.431c0,1.245,1.276,2.489,3.824,3.433a30.085,30.085,0,0,0,18.229-.038C131.748,229.738,132.988,228.511,132.988,227.284Z" transform="translate(-107.211 -222.595)" fill="#d96d00"/>
      <path id="Path_589" data-name="Path 589" d="M132.988,226.287v3.431c0,1.227-1.24,2.454-3.724,3.4a30.074,30.074,0,0,1-18.229.037c-2.548-.944-3.824-2.188-3.824-3.432v-3.431c0,1.244,1.276,2.489,3.824,3.433a30.073,30.073,0,0,0,18.229-.038C131.748,228.741,132.988,227.514,132.988,226.287Z" transform="translate(-107.211 -221.8)" fill="url(#linear-gradient-3)"/>
      <g id="Group_830" data-name="Group 830" transform="translate(0.381 5.653)" style="mix-blend-mode: multiply;isolation: isolate">
        <path id="Path_590" data-name="Path 590" d="M146.918,248.349l-.2-.03v3.432l.2.03Z" transform="translate(-139.081 -245.015)" fill="#f5c491"/>
        <path id="Path_591" data-name="Path 591" d="M142.217,247.552l-.2-.037v3.431l.2.037Z" transform="translate(-135.334 -244.374)" fill="#f5c491"/>
        <path id="Path_592" data-name="Path 592" d="M137.512,246.568l-.2-.047v3.432l.2.047Z" transform="translate(-131.584 -243.582)" fill="#f5c491"/>
        <path id="Path_593" data-name="Path 593" d="M161.029,249.8l-.2-.012v3.431l.2.012Z" transform="translate(-150.329 -246.186)" fill="#f5c491"/>
        <path id="Path_594" data-name="Path 594" d="M156.325,249.461l-.2-.016v3.432l.2.016Z" transform="translate(-146.579 -245.913)" fill="#f5c491"/>
        <path id="Path_595" data-name="Path 595" d="M165.731,250l-.2-.005v3.432l.2.005Z" transform="translate(-154.077 -246.353)" fill="#f5c491"/>
        <path id="Path_596" data-name="Path 596" d="M151.622,248.978l-.2-.024v3.432l.2.024Z" transform="translate(-142.831 -245.521)" fill="#f5c491"/>
        <path id="Path_597" data-name="Path 597" d="M127.9,247.285l.2.068v-3.432l-.2-.068Z" transform="translate(-124.085 -241.456)" fill="#f5c491"/>
        <path id="Path_598" data-name="Path 598" d="M222.174,239.823c-.067.036-.133.072-.2.108v3.431c.07-.036.136-.072.2-.108Z" transform="translate(-199.068 -238.243)" fill="#f5c491"/>
        <path id="Path_599" data-name="Path 599" d="M231.378,235.737a3.117,3.117,0,0,0,.2-.269v-3.431a3.187,3.187,0,0,1-.2.269Z" transform="translate(-206.565 -232.036)" fill="#f5c491"/>
        <path id="Path_600" data-name="Path 600" d="M217.268,245.585c.068-.027.137-.054.2-.082v-3.432c-.066.028-.135.055-.2.082Z" transform="translate(-195.318 -240.035)" fill="#f5c491"/>
        <path id="Path_601" data-name="Path 601" d="M132.808,245.372c-.068-.018-.135-.038-.2-.057v3.432l.2.057Z" transform="translate(-127.834 -242.621)" fill="#f5c491"/>
        <path id="Path_602" data-name="Path 602" d="M226.878,236.835c-.065.049-.132.1-.2.147v3.432c.07-.049.137-.1.2-.148Z" transform="translate(-202.817 -235.861)" fill="#f5c491"/>
        <path id="Path_603" data-name="Path 603" d="M203.36,246.523l-.2.047V250c.068-.015.135-.032.2-.047Z" transform="translate(-184.071 -243.584)" fill="#f5c491"/>
        <path id="Path_604" data-name="Path 604" d="M113.791,240.266c.066.05.132.1.2.149v-3.431c-.07-.049-.137-.1-.2-.148Z" transform="translate(-112.837 -235.861)" fill="#f5c491"/>
        <path id="Path_605" data-name="Path 605" d="M208.065,245.319l-.2.056v3.431l.2-.055Z" transform="translate(-187.822 -242.624)" fill="#f5c491"/>
        <path id="Path_606" data-name="Path 606" d="M212.767,243.862c-.067.023-.135.044-.2.066v3.432l.2-.066Z" transform="translate(-191.57 -241.462)" fill="#f5c491"/>
        <path id="Path_607" data-name="Path 607" d="M118.7,239.931c-.07-.036-.136-.071-.2-.108v3.431c.067.036.133.072.2.108Z" transform="translate(-116.586 -238.243)" fill="#f5c491"/>
        <path id="Path_608" data-name="Path 608" d="M109.088,235.473a3.17,3.17,0,0,0,.2.268V232.31a3.175,3.175,0,0,1-.2-.269Z" transform="translate(-109.088 -232.04)" fill="#f5c491"/>
        <path id="Path_609" data-name="Path 609" d="M170.436,253.509v-3.432h-.2v3.432h.2Z" transform="translate(-157.827 -246.416)" fill="#f5c491"/>
        <path id="Path_610" data-name="Path 610" d="M123.4,242.15c-.069-.027-.136-.056-.2-.084V245.5c.067.028.133.056.2.084Z" transform="translate(-120.336 -240.031)" fill="#f5c491"/>
        <path id="Path_611" data-name="Path 611" d="M179.842,249.788l-.2.012v3.431l.2-.012Z" transform="translate(-165.325 -246.186)" fill="#f5c491"/>
        <path id="Path_612" data-name="Path 612" d="M175.139,250l-.2.005v3.431l.2-.005Z" transform="translate(-161.576 -246.353)" fill="#f5c491"/>
        <path id="Path_613" data-name="Path 613" d="M198.656,247.513l-.2.038v3.432l.2-.038Z" transform="translate(-180.322 -244.373)" fill="#f5c491"/>
        <path id="Path_614" data-name="Path 614" d="M184.546,249.443l-.2.017v3.432l.2-.017Z" transform="translate(-169.075 -245.911)" fill="#f5c491"/>
        <path id="Path_615" data-name="Path 615" d="M189.25,248.954l-.2.025v3.432l.2-.025Z" transform="translate(-172.824 -245.521)" fill="#f5c491"/>
        <path id="Path_616" data-name="Path 616" d="M193.954,248.322l-.2.029v3.431l.2-.029Z" transform="translate(-176.574 -245.018)" fill="#f5c491"/>
      </g>
      <path id="Path_617" data-name="Path 617" d="M129.162,205.568a30.072,30.072,0,0,0-18.227.038c-5,1.9-4.959,4.953.1,6.828a30.07,30.07,0,0,0,18.229-.038C134.269,210.5,134.223,207.443,129.162,205.568Z" transform="translate(-107.21 -204.173)" fill="url(#linear-gradient-7)"/>
      <path id="Path_618" data-name="Path 618" d="M129.176,208.2a19.181,19.181,0,0,0-2.509-.725l-18.823,2.681c-1.4,1.638-.409,3.5,2.964,4.816l22.183-3.159C133.12,210.51,131.847,209.19,129.176,208.2Z" transform="translate(-107.224 -206.806)" fill="#fff" opacity="0.3" style="mix-blend-mode: overlay;isolation: isolate"/>
      <path id="Path_619" data-name="Path 619" d="M111.047,232.127a30.077,30.077,0,0,0,18.229-.037c2.5-.948,3.742-2.186,3.724-3.422h0c0-.033-.005-.066-.008-.1-.08,1.186-1.315,2.363-3.716,3.273a30.071,30.071,0,0,1-18.229.038c-2.465-.913-3.737-2.108-3.817-3.312C107.14,229.854,108.412,231.151,111.047,232.127Z" transform="translate(-107.223 -223.617)" fill="#fff" opacity="0.6" style="mix-blend-mode: overlay;isolation: isolate"/>
      <path id="Path_620" data-name="Path 620" d="M139.824,211.315a22.36,22.36,0,0,0-13.552.028c-3.721,1.41-3.688,3.683.076,5.077a22.361,22.361,0,0,0,13.55-.029C143.622,214.982,143.587,212.709,139.824,211.315Z" transform="translate(-120.198 -209.039)" fill="#f28500"/>
      <path id="Path_621" data-name="Path 621" d="M126.282,211.925a22.362,22.362,0,0,1,13.552-.028c1.576.584,2.5,1.322,2.761,2.086.377-1.075-.545-2.2-2.761-3.022a22.352,22.352,0,0,0-13.552.028c-2.162.819-3.054,1.93-2.686,2.99C123.859,213.23,124.753,212.5,126.282,211.925Z" transform="translate(-120.208 -208.757)" fill="#fff" opacity="0.6" style="mix-blend-mode: overlay;isolation: isolate"/>
      <path id="Path_622" data-name="Path 622" d="M126.282,212.28a22.352,22.352,0,0,1,13.552-.028c1.576.584,2.5,1.322,2.761,2.086.377-1.075-.545-2.2-2.761-3.022a22.36,22.36,0,0,0-13.552.028c-2.162.82-3.054,1.93-2.686,2.991C123.859,213.584,124.753,212.859,126.282,212.28Z" transform="translate(-120.208 -209.039)" fill="#d96d00"/>
      <path id="Path_623" data-name="Path 623" d="M154.632,223.346h0V222.7l-3.6-1.1a.381.381,0,0,0-.135-.023.371.371,0,0,0-.133.024l-5.979,1.617v.675c0,.018.022.035.062.05l1.412.522a.368.368,0,0,0,.133.023.379.379,0,0,0,.133-.023l1.988-.754a.127.127,0,0,1,.089,0l.948.351a6.156,6.156,0,0,0,1.4.333,6.967,6.967,0,0,0,.852.053q.314,0,.622-.029a5.071,5.071,0,0,0,1.321-.292,1.769,1.769,0,0,0,.8-.5A.411.411,0,0,0,154.632,223.346Zm-2.6.183a1.687,1.687,0,0,1-.6.1h-.058a2.189,2.189,0,0,1-.7-.132l-.751-.278q-.044-.016,0-.033l1.184-.448a.117.117,0,0,1,.044-.009.127.127,0,0,1,.045.009l.749.278q.331.122.355.264C152.318,223.371,152.229,223.455,152.036,223.529Z" transform="translate(-137.16 -218.051)" fill="#d96d00"/>
      <path id="Path_624" data-name="Path 624" d="M154.512,219.733a2.1,2.1,0,0,0-.865-.51l-2.616-.969a.381.381,0,0,0-.135-.023.367.367,0,0,0-.133.024l-5.92,2.242c-.04.015-.06.032-.06.05s.022.035.062.049l1.412.523a.372.372,0,0,0,.133.023.38.38,0,0,0,.133-.023l1.988-.753a.127.127,0,0,1,.089,0l.948.351a6.168,6.168,0,0,0,1.4.333,6.925,6.925,0,0,0,.852.053q.314,0,.622-.029a5.07,5.07,0,0,0,1.321-.292,1.767,1.767,0,0,0,.8-.5A.4.4,0,0,0,154.512,219.733Zm-2.476.443a1.687,1.687,0,0,1-.6.1h-.058a2.183,2.183,0,0,1-.7-.132l-.751-.278c-.029-.011-.029-.022,0-.033l1.184-.448a.117.117,0,0,1,.044-.009.127.127,0,0,1,.045.009l.749.278q.331.122.355.264C152.318,220.018,152.229,220.1,152.036,220.176Z" transform="translate(-137.16 -215.379)" fill="url(#linear-gradient-8)"/>
      <g id="Group_831" data-name="Group 831" transform="translate(7.623 3.938)" opacity="0.6" style="mix-blend-mode: overlay;isolation: isolate">
        <path id="Path_625" data-name="Path 625" d="M172.059,223.868l-.749-.277a.127.127,0,0,0-.045-.009.117.117,0,0,0-.044.009l-1.184.448c-.029.011-.029.022,0,.033l.032.012,1.152-.436a.117.117,0,0,1,.044-.009.127.127,0,0,1,.045.009l.749.278c.212.078.327.163.35.253a.12.12,0,0,0,.005-.046Q172.39,223.99,172.059,223.868Z" transform="translate(-164.895 -223.582)" fill="#fff"/>
        <path id="Path_626" data-name="Path 626" d="M154.541,227.151a1.771,1.771,0,0,1-.8.5,5.07,5.07,0,0,1-1.321.292q-.309.029-.622.029a6.924,6.924,0,0,1-.852-.053,6.165,6.165,0,0,1-1.4-.333l-.948-.351a.127.127,0,0,0-.089,0l-1.988.753a.38.38,0,0,1-.133.024.372.372,0,0,1-.133-.024l-1.412-.523a.157.157,0,0,1-.041-.022c-.013.01-.02.019-.02.029s.022.035.062.049l1.412.523a.373.373,0,0,0,.133.023.38.38,0,0,0,.133-.023l1.988-.753a.127.127,0,0,1,.089,0l.948.351a6.167,6.167,0,0,0,1.4.333,6.919,6.919,0,0,0,.852.053q.314,0,.622-.029a5.071,5.071,0,0,0,1.321-.292,1.767,1.767,0,0,0,.8-.5.411.411,0,0,0,.091-.286A.432.432,0,0,1,154.541,227.151Z" transform="translate(-144.783 -226.244)" fill="#fff"/>
      </g>
    </g>
    <g id="Group_835" data-name="Group 835" transform="translate(39.737 167.593)">
      <path id="Path_627" data-name="Path 627" d="M132.988,209.433v3.432c0,1.227-1.24,2.454-3.724,3.395a30.083,30.083,0,0,1-18.229.038c-2.548-.945-3.824-2.188-3.824-3.433v-3.431c0,1.244,1.276,2.489,3.824,3.433a30.082,30.082,0,0,0,18.229-.038C131.748,211.887,132.988,210.66,132.988,209.433Z" transform="translate(-107.211 -204.744)" fill="#d96d00"/>
      <path id="Path_628" data-name="Path 628" d="M132.988,208.435v3.431c0,1.227-1.24,2.454-3.724,3.395a30.074,30.074,0,0,1-18.229.038c-2.548-.944-3.824-2.188-3.824-3.433v-3.431c0,1.244,1.276,2.488,3.824,3.433a30.087,30.087,0,0,0,18.229-.038C131.748,210.889,132.988,209.662,132.988,208.435Z" transform="translate(-107.211 -203.948)" fill="url(#linear-gradient-3)"/>
      <g id="Group_833" data-name="Group 833" transform="translate(0.381 5.653)" style="mix-blend-mode: multiply;isolation: isolate">
        <path id="Path_629" data-name="Path 629" d="M146.918,230.5l-.2-.029V233.9l.2.029Z" transform="translate(-139.081 -227.165)" fill="#f5c491"/>
        <path id="Path_630" data-name="Path 630" d="M142.217,229.7l-.2-.037v3.432l.2.037Z" transform="translate(-135.334 -226.521)" fill="#f5c491"/>
        <path id="Path_631" data-name="Path 631" d="M137.512,228.716l-.2-.047V232.1l.2.048Z" transform="translate(-131.584 -225.73)" fill="#f5c491"/>
        <path id="Path_632" data-name="Path 632" d="M161.029,231.948l-.2-.012v3.432l.2.012Z" transform="translate(-150.329 -228.334)" fill="#f5c491"/>
        <path id="Path_633" data-name="Path 633" d="M156.325,231.61l-.2-.016v3.431l.2.017Z" transform="translate(-146.579 -228.062)" fill="#f5c491"/>
        <path id="Path_634" data-name="Path 634" d="M165.731,232.15l-.2-.005v3.432l.2.005Z" transform="translate(-154.077 -228.501)" fill="#f5c491"/>
        <path id="Path_635" data-name="Path 635" d="M151.622,231.127l-.2-.024v3.431l.2.024Z" transform="translate(-142.831 -227.67)" fill="#f5c491"/>
        <path id="Path_636" data-name="Path 636" d="M127.9,229.434l.2.068v-3.431l-.2-.068Z" transform="translate(-124.085 -223.605)" fill="#f5c491"/>
        <path id="Path_637" data-name="Path 637" d="M222.174,221.97c-.067.036-.133.073-.2.108v3.431c.07-.036.136-.072.2-.108Z" transform="translate(-199.068 -220.39)" fill="#f5c491"/>
        <path id="Path_638" data-name="Path 638" d="M231.378,217.886a3.323,3.323,0,0,0,.2-.269v-3.431a3.217,3.217,0,0,1-.2.269Z" transform="translate(-206.565 -214.185)" fill="#f5c491"/>
        <path id="Path_639" data-name="Path 639" d="M217.268,227.732c.068-.027.137-.054.2-.082v-3.432c-.066.028-.135.055-.2.083Z" transform="translate(-195.318 -222.182)" fill="#f5c491"/>
        <path id="Path_640" data-name="Path 640" d="M132.808,227.521c-.068-.018-.135-.038-.2-.057V230.9l.2.057Z" transform="translate(-127.834 -224.77)" fill="#f5c491"/>
        <path id="Path_641" data-name="Path 641" d="M226.878,218.983c-.065.049-.132.1-.2.147v3.432c.07-.049.137-.1.2-.147Z" transform="translate(-202.817 -218.009)" fill="#f5c491"/>
        <path id="Path_642" data-name="Path 642" d="M203.36,228.669c-.068.016-.134.033-.2.047v3.432l.2-.047Z" transform="translate(-184.071 -225.73)" fill="#f5c491"/>
        <path id="Path_643" data-name="Path 643" d="M113.791,222.412c.066.05.132.1.2.149V219.13c-.07-.049-.137-.1-.2-.149Z" transform="translate(-112.837 -218.008)" fill="#f5c491"/>
        <path id="Path_644" data-name="Path 644" d="M208.065,227.468l-.2.055v3.431l.2-.055Z" transform="translate(-187.822 -224.773)" fill="#f5c491"/>
        <path id="Path_645" data-name="Path 645" d="M212.767,226.01l-.2.066v3.431c.067-.022.136-.043.2-.066Z" transform="translate(-191.57 -223.611)" fill="#f5c491"/>
        <path id="Path_646" data-name="Path 646" d="M118.7,222.078c-.07-.036-.136-.072-.2-.108V225.4c.067.036.133.072.2.108Z" transform="translate(-116.586 -220.39)" fill="#f5c491"/>
        <path id="Path_647" data-name="Path 647" d="M109.088,217.621a3.17,3.17,0,0,0,.2.269v-3.431a3.27,3.27,0,0,1-.2-.269Z" transform="translate(-109.088 -214.189)" fill="#f5c491"/>
        <path id="Path_648" data-name="Path 648" d="M170.436,235.657v-3.431h-.2v3.431h.2Z" transform="translate(-157.827 -228.565)" fill="#f5c491"/>
        <path id="Path_649" data-name="Path 649" d="M123.4,224.3l-.2-.084v3.431c.067.028.133.056.2.084Z" transform="translate(-120.336 -222.179)" fill="#f5c491"/>
        <path id="Path_650" data-name="Path 650" d="M179.842,231.936l-.2.012v3.432l.2-.012Z" transform="translate(-165.325 -228.334)" fill="#f5c491"/>
        <path id="Path_651" data-name="Path 651" d="M175.139,232.144l-.2.005v3.432l.2-.005Z" transform="translate(-161.576 -228.5)" fill="#f5c491"/>
        <path id="Path_652" data-name="Path 652" d="M198.656,229.659l-.2.038v3.432l.2-.038Z" transform="translate(-180.322 -226.519)" fill="#f5c491"/>
        <path id="Path_653" data-name="Path 653" d="M184.546,231.592l-.2.017v3.431l.2-.016Z" transform="translate(-169.075 -228.06)" fill="#f5c491"/>
        <path id="Path_654" data-name="Path 654" d="M189.25,231.1l-.2.024v3.432l.2-.025Z" transform="translate(-172.824 -227.67)" fill="#f5c491"/>
        <path id="Path_655" data-name="Path 655" d="M193.954,230.471l-.2.029v3.431l.2-.029Z" transform="translate(-176.574 -227.167)" fill="#f5c491"/>
      </g>
      <path id="Path_656" data-name="Path 656" d="M129.162,187.717a30.078,30.078,0,0,0-18.227.039c-5,1.9-4.959,4.953.1,6.828a30.085,30.085,0,0,0,18.229-.038C134.269,192.649,134.223,189.592,129.162,187.717Z" transform="translate(-107.21 -186.322)" fill="url(#linear-gradient)"/>
      <path id="Path_657" data-name="Path 657" d="M129.176,190.349a19.2,19.2,0,0,0-2.509-.725L107.844,192.3c-1.4,1.638-.409,3.5,2.964,4.816l22.183-3.159C133.12,192.658,131.847,191.339,129.176,190.349Z" transform="translate(-107.224 -188.954)" fill="#fff" opacity="0.3" style="mix-blend-mode: overlay;isolation: isolate"/>
      <path id="Path_658" data-name="Path 658" d="M111.047,214.277a30.073,30.073,0,0,0,18.229-.038c2.5-.948,3.742-2.185,3.724-3.421v0c0-.033-.005-.065-.008-.1-.08,1.186-1.315,2.363-3.716,3.273a30.085,30.085,0,0,1-18.229.038c-2.465-.914-3.737-2.108-3.817-3.312C107.14,212,108.412,213.3,111.047,214.277Z" transform="translate(-107.223 -205.767)" fill="#fff" opacity="0.6" style="mix-blend-mode: overlay;isolation: isolate"/>
      <path id="Path_659" data-name="Path 659" d="M139.824,193.464a22.36,22.36,0,0,0-13.552.028c-3.721,1.41-3.688,3.683.076,5.076a22.354,22.354,0,0,0,13.55-.028C143.622,197.131,143.587,194.858,139.824,193.464Z" transform="translate(-120.198 -191.188)" fill="#f28500"/>
      <path id="Path_660" data-name="Path 660" d="M126.282,194.075a22.352,22.352,0,0,1,13.552-.028c1.576.584,2.5,1.321,2.761,2.086.377-1.075-.545-2.2-2.761-3.022a22.36,22.36,0,0,0-13.552.028c-2.162.82-3.054,1.93-2.686,2.991C123.859,195.379,124.753,194.654,126.282,194.075Z" transform="translate(-120.208 -190.906)" fill="#fff" opacity="0.6" style="mix-blend-mode: overlay;isolation: isolate"/>
      <path id="Path_661" data-name="Path 661" d="M126.282,194.428a22.362,22.362,0,0,1,13.552-.028c1.576.584,2.5,1.322,2.761,2.086.377-1.075-.545-2.2-2.761-3.022a22.36,22.36,0,0,0-13.552.028c-2.162.819-3.054,1.93-2.686,2.99C123.859,195.733,124.753,195.007,126.282,194.428Z" transform="translate(-120.208 -191.188)" fill="#d96d00"/>
      <path id="Path_662" data-name="Path 662" d="M154.632,205.494h0v-.641l-3.6-1.1a.381.381,0,0,0-.135-.023.371.371,0,0,0-.133.024l-5.979,1.616v.675c0,.018.022.035.062.05l1.412.522a.363.363,0,0,0,.133.023.371.371,0,0,0,.133-.023l1.988-.753a.127.127,0,0,1,.089,0l.948.35a6.144,6.144,0,0,0,1.4.333,6.919,6.919,0,0,0,.852.053q.314,0,.622-.029a5.071,5.071,0,0,0,1.321-.292,1.767,1.767,0,0,0,.8-.5A.411.411,0,0,0,154.632,205.494Zm-2.6.183a1.678,1.678,0,0,1-.6.1h-.058a2.173,2.173,0,0,1-.7-.132l-.751-.278c-.029-.011-.029-.022,0-.033l1.184-.449a.124.124,0,0,1,.044-.009.135.135,0,0,1,.045.009l.749.278q.331.122.355.264C152.318,205.519,152.229,205.6,152.036,205.676Z" transform="translate(-137.16 -200.2)" fill="#d96d00"/>
      <path id="Path_663" data-name="Path 663" d="M154.512,201.882a2.1,2.1,0,0,0-.865-.509l-2.616-.969a.4.4,0,0,0-.268,0l-5.92,2.242c-.04.016-.06.032-.06.05s.022.035.062.05l1.412.523a.373.373,0,0,0,.133.023.38.38,0,0,0,.133-.023l1.988-.754a.121.121,0,0,1,.089,0l.948.351a6.133,6.133,0,0,0,1.4.333,6.918,6.918,0,0,0,.852.053q.314,0,.622-.028a5.071,5.071,0,0,0,1.321-.292,1.767,1.767,0,0,0,.8-.5A.4.4,0,0,0,154.512,201.882Zm-2.476.443a1.7,1.7,0,0,1-.6.1h-.058a2.173,2.173,0,0,1-.7-.131l-.751-.278c-.029-.011-.029-.022,0-.033l1.184-.448a.113.113,0,0,1,.044-.009.122.122,0,0,1,.045.009l.749.278q.331.122.355.264C152.318,202.167,152.229,202.251,152.036,202.325Z" transform="translate(-137.16 -197.528)" fill="url(#linear-gradient-11)"/>
      <g id="Group_834" data-name="Group 834" transform="translate(7.623 3.938)" opacity="0.6" style="mix-blend-mode: overlay;isolation: isolate">
        <path id="Path_664" data-name="Path 664" d="M172.059,206.017l-.749-.278a.131.131,0,0,0-.045-.009.121.121,0,0,0-.044.009l-1.184.448c-.029.011-.029.022,0,.033l.032.012,1.152-.436a.113.113,0,0,1,.044-.009.123.123,0,0,1,.045.009l.749.278c.212.078.327.162.35.253a.119.119,0,0,0,.005-.045Q172.39,206.139,172.059,206.017Z" transform="translate(-164.895 -205.73)" fill="#fff"/>
        <path id="Path_665" data-name="Path 665" d="M154.541,209.3a1.767,1.767,0,0,1-.8.5,5.054,5.054,0,0,1-1.321.292q-.309.029-.622.029a6.921,6.921,0,0,1-.852-.053,6.177,6.177,0,0,1-1.4-.333l-.948-.351a.133.133,0,0,0-.089,0l-1.988.754a.391.391,0,0,1-.266,0l-1.412-.522a.178.178,0,0,1-.041-.021.039.039,0,0,0-.02.029c0,.018.022.035.062.05l1.412.523a.372.372,0,0,0,.133.023.38.38,0,0,0,.133-.023l1.988-.754a.121.121,0,0,1,.089,0l.948.351a6.133,6.133,0,0,0,1.4.333,6.918,6.918,0,0,0,.852.053q.314,0,.622-.028a5.071,5.071,0,0,0,1.321-.292,1.767,1.767,0,0,0,.8-.5.411.411,0,0,0,.091-.287A.435.435,0,0,1,154.541,209.3Z" transform="translate(-144.783 -208.391)" fill="#fff"/>
      </g>
    </g>
    <g id="Group_838" data-name="Group 838" transform="translate(39.737 163.971)">
      <path id="Path_666" data-name="Path 666" d="M132.988,191.58v3.431c0,1.227-1.24,2.454-3.724,3.4a30.077,30.077,0,0,1-18.229.038c-2.548-.944-3.824-2.188-3.824-3.433V191.58c0,1.245,1.276,2.489,3.824,3.433a30.083,30.083,0,0,0,18.229-.037C131.748,194.034,132.988,192.807,132.988,191.58Z" transform="translate(-107.211 -186.891)" fill="#d96d00"/>
      <path id="Path_667" data-name="Path 667" d="M132.988,190.583v3.431c0,1.227-1.24,2.454-3.724,3.4a30.077,30.077,0,0,1-18.229.038c-2.548-.945-3.824-2.188-3.824-3.433v-3.431c0,1.245,1.276,2.489,3.824,3.433a30.083,30.083,0,0,0,18.229-.038C131.748,193.037,132.988,191.81,132.988,190.583Z" transform="translate(-107.211 -186.096)" fill="url(#linear-gradient-3)"/>
      <g id="Group_836" data-name="Group 836" transform="translate(0.381 5.654)" style="mix-blend-mode: multiply;isolation: isolate">
        <path id="Path_668" data-name="Path 668" d="M146.918,212.647l-.2-.03v3.431l.2.03Z" transform="translate(-139.081 -209.313)" fill="#f5c491"/>
        <path id="Path_669" data-name="Path 669" d="M142.217,211.848l-.2-.037v3.431l.2.037Z" transform="translate(-135.334 -208.671)" fill="#f5c491"/>
        <path id="Path_670" data-name="Path 670" d="M137.512,210.862l-.2-.047v3.432l.2.047Z" transform="translate(-131.584 -207.877)" fill="#f5c491"/>
        <path id="Path_671" data-name="Path 671" d="M161.029,214.1l-.2-.012v3.431l.2.013Z" transform="translate(-150.329 -210.482)" fill="#f5c491"/>
        <path id="Path_672" data-name="Path 672" d="M156.325,213.757l-.2-.017v3.432l.2.017Z" transform="translate(-146.579 -210.208)" fill="#f5c491"/>
        <path id="Path_673" data-name="Path 673" d="M165.731,214.3l-.2-.005v3.432l.2.005Z" transform="translate(-154.077 -210.649)" fill="#f5c491"/>
        <path id="Path_674" data-name="Path 674" d="M151.622,213.273l-.2-.024v3.432l.2.024Z" transform="translate(-142.831 -209.817)" fill="#f5c491"/>
        <path id="Path_675" data-name="Path 675" d="M127.9,211.581l.2.068v-3.432c-.068-.022-.136-.045-.2-.068Z" transform="translate(-124.085 -205.752)" fill="#f5c491"/>
        <path id="Path_676" data-name="Path 676" d="M222.174,204.118c-.067.037-.133.072-.2.108v3.431c.07-.036.136-.072.2-.108Z" transform="translate(-199.068 -202.539)" fill="#f5c491"/>
        <path id="Path_677" data-name="Path 677" d="M231.378,200.035a3.26,3.26,0,0,0,.2-.269v-3.431a3.215,3.215,0,0,1-.2.269Z" transform="translate(-206.565 -196.334)" fill="#f5c491"/>
        <path id="Path_678" data-name="Path 678" d="M217.268,209.881c.068-.028.137-.054.2-.082v-3.432c-.066.028-.135.055-.2.082Z" transform="translate(-195.318 -204.331)" fill="#f5c491"/>
        <path id="Path_679" data-name="Path 679" d="M132.808,209.669l-.2-.057v3.432l.2.057Z" transform="translate(-127.834 -206.918)" fill="#f5c491"/>
        <path id="Path_680" data-name="Path 680" d="M226.878,201.132c-.065.049-.132.1-.2.147v3.431c.07-.049.137-.1.2-.147Z" transform="translate(-202.817 -200.158)" fill="#f5c491"/>
        <path id="Path_681" data-name="Path 681" d="M203.36,210.817l-.2.048V214.3l.2-.047Z" transform="translate(-184.071 -207.878)" fill="#f5c491"/>
        <path id="Path_682" data-name="Path 682" d="M113.791,204.561c.066.05.132.1.2.148v-3.431c-.07-.049-.137-.1-.2-.148Z" transform="translate(-112.837 -200.157)" fill="#f5c491"/>
        <path id="Path_683" data-name="Path 683" d="M208.065,209.616l-.2.055V213.1l.2-.055Z" transform="translate(-187.822 -206.921)" fill="#f5c491"/>
        <path id="Path_684" data-name="Path 684" d="M212.767,208.158l-.2.066v3.431l.2-.066Z" transform="translate(-191.57 -205.759)" fill="#f5c491"/>
        <path id="Path_685" data-name="Path 685" d="M118.7,204.226c-.07-.036-.136-.072-.2-.108v3.432c.067.036.133.072.2.108Z" transform="translate(-116.586 -202.539)" fill="#f5c491"/>
        <path id="Path_686" data-name="Path 686" d="M109.088,199.769a3.143,3.143,0,0,0,.2.269v-3.431a3.307,3.307,0,0,1-.2-.269Z" transform="translate(-109.088 -196.337)" fill="#f5c491"/>
        <path id="Path_687" data-name="Path 687" d="M170.436,217.806v-3.431h-.2v3.431h.2Z" transform="translate(-157.827 -210.714)" fill="#f5c491"/>
        <path id="Path_688" data-name="Path 688" d="M123.4,206.444c-.069-.027-.136-.056-.2-.084v3.431c.067.028.133.057.2.084Z" transform="translate(-120.336 -204.326)" fill="#f5c491"/>
        <path id="Path_689" data-name="Path 689" d="M179.842,214.084l-.2.012v3.432l.2-.012Z" transform="translate(-165.325 -210.482)" fill="#f5c491"/>
        <path id="Path_690" data-name="Path 690" d="M175.139,214.293l-.2.005v3.432l.2-.005Z" transform="translate(-161.576 -210.649)" fill="#f5c491"/>
        <path id="Path_691" data-name="Path 691" d="M198.656,211.808l-.2.038v3.432l.2-.038Z" transform="translate(-180.322 -208.668)" fill="#f5c491"/>
        <path id="Path_692" data-name="Path 692" d="M184.546,213.738l-.2.017v3.432l.2-.017Z" transform="translate(-169.075 -210.207)" fill="#f5c491"/>
        <path id="Path_693" data-name="Path 693" d="M189.25,213.249l-.2.025v3.432l.2-.025Z" transform="translate(-172.824 -209.817)" fill="#f5c491"/>
        <path id="Path_694" data-name="Path 694" d="M193.954,212.619l-.2.029v3.431l.2-.029Z" transform="translate(-176.574 -209.315)" fill="#f5c491"/>
      </g>
      <path id="Path_695" data-name="Path 695" d="M129.162,169.864a30.072,30.072,0,0,0-18.227.038c-5,1.9-4.959,4.953.1,6.828a30.075,30.075,0,0,0,18.229-.038C134.269,174.8,134.223,171.739,129.162,169.864Z" transform="translate(-107.21 -168.469)" fill="url(#linear-gradient)"/>
      <path id="Path_696" data-name="Path 696" d="M129.176,172.5a19.237,19.237,0,0,0-2.509-.725l-18.823,2.681c-1.4,1.638-.409,3.5,2.964,4.817l22.183-3.16C133.12,174.8,131.847,173.485,129.176,172.5Z" transform="translate(-107.224 -171.1)" fill="#fff" opacity="0.3" style="mix-blend-mode: overlay;isolation: isolate"/>
      <path id="Path_697" data-name="Path 697" d="M111.047,196.425a30.085,30.085,0,0,0,18.229-.038c2.5-.948,3.742-2.186,3.724-3.421v0c0-.033-.005-.066-.008-.1-.08,1.186-1.315,2.363-3.716,3.273a30.074,30.074,0,0,1-18.229.038c-2.465-.913-3.737-2.108-3.817-3.311C107.14,194.152,108.412,195.449,111.047,196.425Z" transform="translate(-107.223 -187.915)" fill="#fff" opacity="0.6" style="mix-blend-mode: overlay;isolation: isolate"/>
      <path id="Path_698" data-name="Path 698" d="M139.824,175.611a22.35,22.35,0,0,0-13.552.028c-3.721,1.41-3.688,3.683.076,5.076a22.35,22.35,0,0,0,13.55-.029C143.622,179.277,143.587,177,139.824,175.611Z" transform="translate(-120.198 -173.335)" fill="#f28500"/>
      <path id="Path_699" data-name="Path 699" d="M126.282,176.223a22.354,22.354,0,0,1,13.552-.028c1.576.584,2.5,1.322,2.761,2.086.377-1.075-.545-2.2-2.761-3.022a22.362,22.362,0,0,0-13.552.028c-2.162.819-3.054,1.93-2.686,2.99C123.859,177.528,124.753,176.8,126.282,176.223Z" transform="translate(-120.208 -173.055)" fill="#fff" opacity="0.6" style="mix-blend-mode: overlay;isolation: isolate"/>
      <path id="Path_700" data-name="Path 700" d="M126.282,176.575a22.358,22.358,0,0,1,13.552-.028c1.576.584,2.5,1.322,2.761,2.086.377-1.075-.545-2.2-2.761-3.022a22.35,22.35,0,0,0-13.552.028c-2.162.819-3.054,1.93-2.686,2.99C123.859,177.879,124.753,177.154,126.282,176.575Z" transform="translate(-120.208 -173.335)" fill="#d96d00"/>
      <path id="Path_701" data-name="Path 701" d="M154.632,187.641h0V187l-3.6-1.1a.391.391,0,0,0-.135-.023.371.371,0,0,0-.133.024l-5.979,1.617v.675c0,.017.022.034.062.05l1.412.522a.387.387,0,0,0,.266,0l1.988-.753a.127.127,0,0,1,.089,0l.948.351a6.145,6.145,0,0,0,1.4.334,7,7,0,0,0,.852.053c.209,0,.417-.01.622-.029a5.072,5.072,0,0,0,1.321-.293,1.771,1.771,0,0,0,.8-.5A.411.411,0,0,0,154.632,187.641Zm-2.6.183a1.692,1.692,0,0,1-.6.1h-.058a2.183,2.183,0,0,1-.7-.132l-.751-.279c-.029-.011-.029-.022,0-.033l1.184-.448a.121.121,0,0,1,.044-.009.131.131,0,0,1,.045.009l.749.278q.331.122.355.264C152.318,187.666,152.229,187.75,152.036,187.824Z" transform="translate(-137.16 -182.346)" fill="#d96d00"/>
      <path id="Path_702" data-name="Path 702" d="M154.512,184.028a2.094,2.094,0,0,0-.865-.51l-2.616-.969a.39.39,0,0,0-.135-.023.367.367,0,0,0-.133.024l-5.92,2.242c-.04.015-.06.032-.06.05s.022.035.062.05l1.412.523a.364.364,0,0,0,.133.024.371.371,0,0,0,.133-.024l1.988-.753a.127.127,0,0,1,.089,0l.948.35a6.145,6.145,0,0,0,1.4.334,7,7,0,0,0,.852.053q.314,0,.622-.029a5.071,5.071,0,0,0,1.321-.292,1.767,1.767,0,0,0,.8-.5A.4.4,0,0,0,154.512,184.028Zm-2.476.442a1.683,1.683,0,0,1-.6.1h-.058a2.189,2.189,0,0,1-.7-.132l-.751-.279c-.029-.011-.029-.022,0-.033l1.184-.448a.124.124,0,0,1,.044-.009.135.135,0,0,1,.045.009l.749.278c.221.081.339.169.355.264S152.229,184.4,152.036,184.471Z" transform="translate(-137.16 -179.674)" fill="url(#linear-gradient-5)"/>
      <g id="Group_837" data-name="Group 837" transform="translate(7.623 3.938)" opacity="0.6" style="mix-blend-mode: overlay;isolation: isolate">
        <path id="Path_703" data-name="Path 703" d="M172.059,188.163l-.749-.278a.126.126,0,0,0-.045-.009.117.117,0,0,0-.044.009l-1.184.448q-.044.017,0,.033l.032.012,1.152-.436a.125.125,0,0,1,.044-.009.136.136,0,0,1,.045.009l.749.278c.212.078.327.162.35.253a.119.119,0,0,0,.005-.046C172.4,188.333,172.28,188.245,172.059,188.163Z" transform="translate(-164.895 -187.877)" fill="#fff"/>
        <path id="Path_704" data-name="Path 704" d="M154.541,191.446a1.769,1.769,0,0,1-.8.5,5.038,5.038,0,0,1-1.321.292q-.309.029-.622.029a6.919,6.919,0,0,1-.852-.053,6.165,6.165,0,0,1-1.4-.333l-.948-.351a.127.127,0,0,0-.089,0l-1.988.753a.38.38,0,0,1-.133.024.368.368,0,0,1-.133-.024l-1.412-.522a.163.163,0,0,1-.041-.022c-.013.009-.02.019-.02.029s.022.035.062.05l1.412.523a.364.364,0,0,0,.133.024.371.371,0,0,0,.133-.024l1.988-.753a.127.127,0,0,1,.089,0l.948.35a6.145,6.145,0,0,0,1.4.334,7,7,0,0,0,.852.053q.314,0,.622-.029a5.071,5.071,0,0,0,1.321-.292,1.767,1.767,0,0,0,.8-.5.411.411,0,0,0,.091-.286A.432.432,0,0,1,154.541,191.446Z" transform="translate(-144.783 -190.539)" fill="#fff"/>
      </g>
    </g>
    <g id="Group_841" data-name="Group 841" transform="translate(22.562 164.331)">
      <path id="Path_707" data-name="Path 707" d="M79.79,170.243h3.271c6.51,0,11.787,6.24,11.787,13.938s-5.277,13.938-11.787,13.938H79.79c6.51,0,11.787-6.24,11.787-13.938S86.3,170.243,79.79,170.243Z" transform="translate(-68.178 -170.243)" fill="#d96d00"/>
      <path id="Path_708" data-name="Path 708" d="M79.037,170.243h3.271c6.51,0,11.787,6.24,11.787,13.938s-5.277,13.938-11.787,13.938H79.037c6.51,0,11.787-6.24,11.787-13.938S85.547,170.243,79.037,170.243Z" transform="translate(-67.578 -170.243)" fill="url(#linear-gradient-15)"/>
      <g id="Group_839" data-name="Group 839" transform="translate(14.307 0.412)" style="mix-blend-mode: multiply;isolation: isolate">
        <path id="Path_709" data-name="Path 709" d="M136.451,228.444h3.271c-.009-.073-.016-.146-.026-.219h-3.271C136.435,228.3,136.442,228.371,136.451,228.444Z" transform="translate(-127.63 -216.873)" fill="#f5c491"/>
        <path id="Path_710" data-name="Path 710" d="M137.66,218.052h-3.271c.02.073.038.146.057.219h3.271C137.7,218.2,137.68,218.125,137.66,218.052Z" transform="translate(-126.007 -208.764)" fill="#f5c491"/>
        <path id="Path_711" data-name="Path 711" d="M137.122,238.506c0,.037,0,.073,0,.11h3.271c0-.037,0-.073,0-.11s0-.073,0-.109H137.12C137.12,238.434,137.122,238.47,137.122,238.506Z" transform="translate(-128.184 -224.981)" fill="#f5c491"/>
        <path id="Path_712" data-name="Path 712" d="M136.166,213.184c-.024-.073-.048-.147-.073-.219h-3.271c.025.072.049.146.073.219Z" transform="translate(-124.758 -204.709)" fill="#f5c491"/>
        <path id="Path_713" data-name="Path 713" d="M130.946,208.1h3.271c-.03-.074-.063-.146-.095-.219h-3.271C130.882,207.953,130.916,208.025,130.946,208.1Z" transform="translate(-123.187 -200.656)" fill="#f5c491"/>
        <path id="Path_714" data-name="Path 714" d="M140.207,233.529c0-.073-.009-.146-.014-.219h-3.271c0,.073.01.145.014.219Z" transform="translate(-128.026 -220.926)" fill="#f5c491"/>
        <path id="Path_715" data-name="Path 715" d="M128.55,274c-.037.073-.074.146-.112.219h3.271c.038-.073.075-.146.112-.219Z" transform="translate(-121.263 -253.361)" fill="#f5c491"/>
        <path id="Path_716" data-name="Path 716" d="M128.908,279.089h-3.271c-.044.073-.088.147-.133.219h3.271C128.821,279.236,128.864,279.162,128.908,279.089Z" transform="translate(-118.925 -257.416)" fill="#f5c491"/>
        <path id="Path_717" data-name="Path 717" d="M139.722,248.568h-3.271c-.009.073-.016.147-.026.219H139.7C139.706,248.715,139.713,248.641,139.722,248.568Z" transform="translate(-127.63 -233.088)" fill="#f5c491"/>
        <path id="Path_718" data-name="Path 718" d="M138.841,253.874c.015-.073.029-.145.043-.219h-3.271c-.014.074-.028.146-.043.219Z" transform="translate(-126.948 -237.143)" fill="#f5c491"/>
        <path id="Path_719" data-name="Path 719" d="M117.557,289.48h3.271c.069-.072.137-.145.2-.219h-3.271C117.694,289.335,117.626,289.408,117.557,289.48Z" transform="translate(-112.59 -265.524)" fill="#f5c491"/>
        <path id="Path_720" data-name="Path 720" d="M136.167,263.828H132.9c-.024.073-.048.147-.073.219h3.271C136.119,263.975,136.143,263.9,136.167,263.828Z" transform="translate(-124.759 -245.252)" fill="#f5c491"/>
        <path id="Path_721" data-name="Path 721" d="M134.446,258.743c-.018.073-.037.146-.057.219h3.271c.02-.072.038-.146.057-.219Z" transform="translate(-126.007 -241.198)" fill="#f5c491"/>
        <path id="Path_722" data-name="Path 722" d="M136.922,243.7h3.271c.005-.073.01-.146.014-.219h-3.271C136.932,243.556,136.927,243.629,136.922,243.7Z" transform="translate(-128.026 -229.035)" fill="#f5c491"/>
        <path id="Path_723" data-name="Path 723" d="M120.828,187.533h-3.271q.1.108.2.219h3.271Q120.931,187.641,120.828,187.533Z" transform="translate(-112.59 -184.437)" fill="#f5c491"/>
        <path id="Path_724" data-name="Path 724" d="M121.937,192.621c.055.071.108.146.163.219h3.271c-.054-.073-.107-.147-.162-.219Z" transform="translate(-116.081 -188.493)" fill="#f5c491"/>
        <path id="Path_725" data-name="Path 725" d="M97.016,172.493c-.22-.081-.443-.153-.668-.219H93.077c.225.066.448.138.668.219Z" transform="translate(-93.077 -172.274)" fill="#f5c491"/>
        <path id="Path_726" data-name="Path 726" d="M134.122,269.134c.031-.073.064-.145.095-.219h-3.271c-.03.073-.064.146-.095.219Z" transform="translate(-123.187 -249.307)" fill="#f5c491"/>
        <path id="Path_727" data-name="Path 727" d="M115.612,182.665c-.086-.074-.173-.147-.26-.219H112.08c.088.072.175.145.261.219Z" transform="translate(-108.224 -180.382)" fill="#f5c491"/>
        <path id="Path_728" data-name="Path 728" d="M125.5,197.706c.046.072.089.146.133.219h3.271c-.044-.073-.088-.147-.134-.219Z" transform="translate(-118.925 -192.546)" fill="#f5c491"/>
        <path id="Path_729" data-name="Path 729" d="M108.423,177.578c-.119-.076-.24-.148-.362-.219H104.79c.122.071.242.143.362.219Z" transform="translate(-102.413 -176.327)" fill="#f5c491"/>
        <path id="Path_730" data-name="Path 730" d="M105.152,299.434c-.119.076-.24.148-.362.219h3.271c.122-.071.242-.143.362-.219Z" transform="translate(-102.413 -273.633)" fill="#f5c491"/>
        <path id="Path_731" data-name="Path 731" d="M93.745,304.519c-.22.081-.443.153-.668.219h3.271c.225-.066.448-.138.668-.219Z" transform="translate(-93.077 -277.686)" fill="#f5c491"/>
        <path id="Path_732" data-name="Path 732" d="M112.341,294.347q-.129.111-.261.219h3.271c.087-.072.174-.144.26-.219Z" transform="translate(-108.224 -269.578)" fill="#f5c491"/>
        <path id="Path_733" data-name="Path 733" d="M128.438,202.793q.057.108.112.219h3.271q-.055-.11-.112-.219Z" transform="translate(-121.263 -196.601)" fill="#f5c491"/>
        <path id="Path_734" data-name="Path 734" d="M135.57,223.137c.015.073.029.146.043.219h3.271c-.013-.073-.028-.146-.043-.219Z" transform="translate(-126.948 -212.817)" fill="#f5c491"/>
        <path id="Path_735" data-name="Path 735" d="M122.1,284.174c-.054.073-.107.147-.163.219h3.271c.055-.072.108-.146.162-.219Z" transform="translate(-116.081 -261.469)" fill="#f5c491"/>
      </g>
      <ellipse id="Ellipse_127" data-name="Ellipse 127" cx="11.787" cy="13.938" rx="11.787" ry="13.938" fill="url(#linear-gradient-16)"/>
      <g id="Group_840" data-name="Group 840" transform="translate(0.031 0)" opacity="0.3" style="mix-blend-mode: overlay;isolation: isolate">
        <path id="Path_736" data-name="Path 736" d="M55.735,170.243a10.458,10.458,0,0,0-6.344,2.193l14.82,21.425a15.3,15.3,0,0,0,3.311-9.68c0-.068,0-.136,0-.2l-9.281-13.416A10.086,10.086,0,0,0,55.735,170.243Z" transform="translate(-43.979 -170.243)" fill="#fff"/>
        <path id="Path_737" data-name="Path 737" d="M24.594,201.474a15.61,15.61,0,0,0-1.878,6.637l10.224,14.78a10.075,10.075,0,0,0,1.532.121,10.179,10.179,0,0,0,4.343-.981Z" transform="translate(-22.716 -195.137)" fill="#fff"/>
      </g>
      <path id="Path_738" data-name="Path 738" d="M93.275,184.181c0-7.7-5.277-13.938-11.787-13.938-.047,0-.093,0-.14,0,6.445.089,11.647,6.291,11.647,13.934s-5.2,13.844-11.647,13.933c.047,0,.093,0,.14,0C88,198.119,93.275,191.879,93.275,184.181Z" transform="translate(-69.42 -170.243)" fill="#fff" opacity="0.6" style="mix-blend-mode: overlay;isolation: isolate"/>
      <path id="Path_739" data-name="Path 739" d="M45.364,187.868c-4.841,0-8.763,4.638-8.763,10.362s3.923,10.362,8.763,10.362,8.763-4.64,8.763-10.362S50.2,187.868,45.364,187.868Z" transform="translate(-33.753 -184.292)" fill="#fff" opacity="0.6" style="mix-blend-mode: overlay;isolation: isolate"/>
      <path id="Path_740" data-name="Path 740" d="M46.23,187.868c-4.841,0-8.763,4.638-8.763,10.362s3.922,10.362,8.763,10.362,8.763-4.64,8.763-10.362S51.071,187.868,46.23,187.868Z" transform="translate(-34.443 -184.292)" fill="#f28500"/>
      <path id="Path_741" data-name="Path 741" d="M78.316,216.985a2.539,2.539,0,0,0-.958-1.1,2.663,2.663,0,0,0-1.436-.388H72.553a.159.159,0,0,0-.126.055.226.226,0,0,0-.045.15v9.1a.229.229,0,0,0,.045.15.158.158,0,0,0,.126.053H74.37a.161.161,0,0,0,.127-.053.231.231,0,0,0,.045-.15v-3.056c0-.045.02-.069.058-.069h1.218a2.847,2.847,0,0,0,1.481-.38,2.606,2.606,0,0,0,1-1.074,3.461,3.461,0,0,0,.357-1.6A3.759,3.759,0,0,0,78.316,216.985Zm-2.068,2.39a.907.907,0,0,1-.683.266H74.6c-.038,0-.058-.024-.058-.069v-1.821c0-.045.02-.067.058-.067h.965a.9.9,0,0,1,.683.272,1,1,0,0,1,.258.719A.96.96,0,0,1,76.248,219.375Z" transform="translate(-62.274 -206.314)" fill="#d96d00"/>
      <path id="Path_742" data-name="Path 742" d="M38.634,198.23c0-5.491,3.611-9.981,8.18-10.336-.193-.015-.388-.025-.584-.025-4.841,0-8.763,4.638-8.763,10.362s3.922,10.362,8.763,10.362c.2,0,.391-.011.584-.026C42.246,208.211,38.634,203.719,38.634,198.23Z" transform="translate(-34.443 -184.292)" fill="#d96d00"/>
      <path id="Path_743" data-name="Path 743" d="M73.939,216.985a2.538,2.538,0,0,0-.958-1.1,2.663,2.663,0,0,0-1.437-.388H68.178a.16.16,0,0,0-.127.055.227.227,0,0,0-.045.15v9.1a.23.23,0,0,0,.045.15.158.158,0,0,0,.127.053h1.816a.161.161,0,0,0,.127-.053.23.23,0,0,0,.045-.15v-3.056c0-.045.02-.069.058-.069h1.218a2.847,2.847,0,0,0,1.481-.38,2.6,2.6,0,0,0,1-1.074,3.461,3.461,0,0,0,.357-1.6A3.759,3.759,0,0,0,73.939,216.985Zm-2.068,2.39a.908.908,0,0,1-.683.266h-.965c-.038,0-.058-.024-.058-.069v-1.821c0-.045.02-.067.058-.067h.965a.9.9,0,0,1,.683.272,1,1,0,0,1,.258.719A.96.96,0,0,1,71.872,219.375Z" transform="translate(-58.785 -206.314)" fill="#fff" opacity="0.6" style="mix-blend-mode: overlay;isolation: isolate"/>
      <path id="Path_744" data-name="Path 744" d="M73.153,216.985a2.538,2.538,0,0,0-.958-1.1,2.662,2.662,0,0,0-1.436-.388H67.391a.159.159,0,0,0-.127.055.226.226,0,0,0-.045.15v9.1a.229.229,0,0,0,.045.15.158.158,0,0,0,.127.053h1.816a.16.16,0,0,0,.127-.053.23.23,0,0,0,.045-.15v-3.056c0-.045.02-.069.058-.069h1.218a2.847,2.847,0,0,0,1.481-.38,2.606,2.606,0,0,0,1-1.074,3.461,3.461,0,0,0,.357-1.6A3.759,3.759,0,0,0,73.153,216.985Zm-2.068,2.39a.907.907,0,0,1-.683.266h-.965c-.038,0-.058-.024-.058-.069v-1.821c0-.045.02-.067.058-.067H70.4a.9.9,0,0,1,.683.272,1,1,0,0,1,.258.719A.96.96,0,0,1,71.085,219.375Z" transform="translate(-58.158 -206.314)" fill="url(#linear-gradient-17)"/>
    </g>
    <g id="Group_842" data-name="Group 842" transform="translate(35.863 165.568)">
      <path id="Path_745" data-name="Path 745" d="M129.243,196.566c-.359.1-1.937-4.343-3.528-9.928s-2.592-10.193-2.233-10.3,1.937,4.343,3.528,9.928S129.6,196.464,129.243,196.566Z" transform="translate(-116.248 -176.34)" fill="url(#radial-gradient)" style="mix-blend-mode: screen;isolation: isolate"/>
      <path id="Path_746" data-name="Path 746" d="M88.118,217.462c-.1-.358,4.344-1.938,9.929-3.528s10.193-2.591,10.3-2.233-4.344,1.937-9.929,3.528S88.22,217.819,88.118,217.462Z" transform="translate(-88.117 -204.468)" fill="url(#radial-gradient-2)" style="mix-blend-mode: screen;isolation: isolate"/>
      <path id="Path_747" data-name="Path 747" d="M121.028,208.182c-.219-.121,1.137-2.968,3.025-6.361s3.593-6.043,3.812-5.923-1.137,2.969-3.025,6.361S121.244,208.3,121.028,208.182Z" transform="translate(-114.332 -191.927)" fill="url(#radial-gradient-3)" style="mix-blend-mode: screen;isolation: isolate"/>
      <path id="Path_748" data-name="Path 748" d="M107.682,209.244c.121-.217,2.968,1.137,6.36,3.026s6.044,3.592,5.923,3.811-2.969-1.138-6.361-3.025S107.561,209.461,107.682,209.244Z" transform="translate(-103.709 -202.549)" fill="url(#radial-gradient-4)" style="mix-blend-mode: screen;isolation: isolate"/>
    </g>
    <g id="Group_845" data-name="Group 845" transform="translate(53.012 176.342)">
      <path id="Path_757" data-name="Path 757" d="M180.694,237.838c-.149-.09.874-2.042,2.285-4.36s2.672-4.124,2.822-4.033-.874,2.042-2.284,4.36S180.842,237.928,180.694,237.838Z" transform="translate(-179.047 -229.441)" fill="url(#radial-gradient-5)" style="mix-blend-mode: screen;isolation: isolate"/>
      <path id="Path_758" data-name="Path 758" d="M172.636,237.5c.091-.149,2.043.874,4.361,2.284s4.124,2.672,4.033,2.822-2.042-.875-4.361-2.285S172.546,237.65,172.636,237.5Z" transform="translate(-172.633 -235.854)" fill="url(#radial-gradient-6)" style="mix-blend-mode: screen;isolation: isolate"/>
      <path id="Path_759" data-name="Path 759" d="M177.607,247.76a25.718,25.718,0,0,1,6.381-1.554,25.752,25.752,0,0,1-6.381,1.554Z" transform="translate(-176.598 -242.783)" fill="url(#radial-gradient-7)" style="mix-blend-mode: screen;isolation: isolate"/>
      <path id="Path_760" data-name="Path 760" d="M189.4,234.413a25.768,25.768,0,0,1,1.554,6.382,25.742,25.742,0,0,1-1.554-6.382Z" transform="translate(-185.977 -233.404)" fill="url(#radial-gradient-8)" style="mix-blend-mode: screen;isolation: isolate"/>
    </g>
  </g>
</svg>
