<svg id="Layer_1" data-name="Layer 1" xmlns="http://www.w3.org/2000/svg" viewBox="0 0 1500 1500"><defs><style>.cls-1{fill:#db5790;}</style></defs><path class="cls-1" d="M214.29,366.17s75.94,462.25,354.94,700c0,0-260.85-384.91,175-635.6,11.54-6.63-95.75-3.3-175,67.69-24.41,21.86-100.71,100.7-130.42,102.35S349.66,625.36,214.29,366.17Z"/><path class="cls-1" d="M948.93,1119c-186,0-336.78-150.41-336.78-336,0-142.26,88.64-263.86,213.83-312.86C673.14,512.7,561,652.9,561,819.31c0,200.15,162.24,362.4,362.37,362.4s362.37-162.25,362.37-362.4q0-9.33-.46-18.54C1276,978.06,1129,1119,948.93,1119Z"/><circle class="cls-1" cx="423.12" cy="421.47" r="103.18"/><path class="cls-1" d="M763,643h42.86V605.55S803.65,578,775,576.93s-52.83,0-52.83,0-27.83,2.14-33.09,27.38c-2.38,11.46,1.17,90.39,1.17,90.39s1.1,25.38,27.52,33c17,4.9,80.89.15,80.89.15l-.21-39.15-51.64.48s-9.23,0-11.43-8.8-1.1-53.93-1.1-53.93,9.49-13.28,27-3.11C762.53,624,763,643,763,643Z"/><path class="cls-1" d="M912.2,591.1c-40-28.48-69.75,2.07-69.75,2.07l-36.59,133.3h44l7.43-25.17,40.86,1.24,7.43,23.93h48.28S916.87,594.43,912.2,591.1Zm-49.11,76.77,13.2-49.12h3.58l11.28,49.12Z"/><path class="cls-1" d="M1060,674.88c26-14.85,21-41.27,21-46.63,0-44.58-44.57-49.29-44.57-49.29s-26.42.17-48.7,0-25.59,21.63-25.59,21.63V726.47h44.16l.41-44.57,10.32-.41,21.46,45h48.7S1057.23,676.44,1060,674.88Zm-29.71-27.24h-22.7V616.69h22.7C1043.86,634,1030.24,647.64,1030.24,647.64Z"/><path class="cls-1" d="M1124.75,579h76.77v37.73H1147v17.75h51.18V672H1147v19h54.48v35.49h-80.07s-16.51,2.89-22.29-17.74c-1.22-4.37,0-109.79,0-109.79S1100.81,582.43,1124.75,579Z"/><path class="cls-1" d="M1073,749.21h127v62.43h-90.13V841h84.67v62.14h-84.67v31.41H1200v58.73H1067.5s-27.31,4.78-36.87-29.37c-2-7.23,0-181.63,0-181.63S1033.36,755,1073,749.21Z"/><path class="cls-1" d="M694.7,993.51h70.43V825.94L795.4,933s10.46,32.47,47.88,30.27c7.69-.45,36.59.55,47.87-29.72,2.62-7,32.19-114.46,32.19-114.46l-3,174.45H993l-7.16-208s-9.35-41.34-57.23-41.34c-11,0-37.42-3.23-55.58,29.79-3.35,6.1-25.31,115.56-25.31,115.56h-6.61L811.91,772.29s-10.46-30.82-55.58-28.14c-9.34.55-35.22-.17-50.63,31.44C702.72,781.71,694.7,993.51,694.7,993.51Z"/></svg>