<svg xmlns="http://www.w3.org/2000/svg" width="34.344" height="27.475" viewBox="0 0 34.344 27.475">
  <path id="Fill_1" data-name="Fill 1" d="M34.344,3.251A14.237,14.237,0,0,1,30.3,4.343,6.987,6.987,0,0,0,33.4.507a14.334,14.334,0,0,1-4.477,1.685A7.076,7.076,0,0,0,23.777,0a6.993,6.993,0,0,0-7.046,6.937,6.867,6.867,0,0,0,.182,1.581A20.106,20.106,0,0,1,2.393,1.268,6.807,6.807,0,0,0,1.44,4.756,6.908,6.908,0,0,0,4.573,10.53a7.125,7.125,0,0,1-3.191-.871v.087a6.973,6.973,0,0,0,5.651,6.8,7.232,7.232,0,0,1-1.857.243,6.86,6.86,0,0,1-1.326-.129,7.036,7.036,0,0,0,6.58,4.819,14.273,14.273,0,0,1-8.75,2.966,15.2,15.2,0,0,1-1.68-.1,20.138,20.138,0,0,0,10.8,3.122A19.748,19.748,0,0,0,30.844,7.734l-.023-.9A13.958,13.958,0,0,0,34.344,3.251Z" fill="#2a2a2a"/>
</svg>
