<svg xmlns="http://www.w3.org/2000/svg" width="48" height="48" viewBox="0 0 48 48">
  <g id="Group_12" data-name="Group 12" transform="translate(0.321 -0.041)">
    <rect id="Rectangle" width="48" height="48" transform="translate(-0.321 0.041)" fill="none"/>
    <path id="Fill_1" data-name="Fill 1" d="M16.24,27h0l-6.216,0c0-.14.083-16.528,0-18.218H16.24v2.583c-.014.018-.029.039-.041.058h.042v-.058a6.168,6.168,0,0,1,5.6-3.01,6.823,6.823,0,0,1,5.113,2A8.711,8.711,0,0,1,29,16.552V27l-6.216,0V17.252c0-2.694-1.089-4.119-3.149-4.119a3.45,3.45,0,0,0-3.189,2.214,3.922,3.922,0,0,0-.206,1.478V27ZM6.585,27H.37V8.781H6.585V27ZM3.477,6.3H3.436A3.193,3.193,0,0,1,0,3.147,3.2,3.2,0,0,1,3.519,0,3.192,3.192,0,0,1,6.995,3.147,3.2,3.2,0,0,1,3.477,6.3Z" transform="translate(10.679 10.041)" fill="#2a2a2a"/>
  </g>
</svg>
