<svg id="Icon_feather-shopping-cart" data-name="Icon feather-shopping-cart" xmlns="http://www.w3.org/2000/svg" width="39.782" height="38.11" viewBox="0 0 39.782 38.11">
  <path id="Path_503" data-name="Path 503" d="M15.344,31.672A1.672,1.672,0,1,1,13.672,30,1.672,1.672,0,0,1,15.344,31.672Z" transform="translate(1.203 3.267)" fill="none" stroke="#db5791" stroke-linecap="round" stroke-linejoin="round" stroke-width="3"/>
  <path id="Path_504" data-name="Path 504" d="M31.844,31.672A1.672,1.672,0,1,1,30.172,30,1.672,1.672,0,0,1,31.844,31.672Z" transform="translate(3.095 3.267)" fill="none" stroke="#db5791" stroke-linecap="round" stroke-linejoin="round" stroke-width="3"/>
  <path id="Path_505" data-name="Path 505" d="M1.5,1.5H8.188l4.481,22.387a3.344,3.344,0,0,0,3.344,2.692H32.263a3.344,3.344,0,0,0,3.344-2.692L38.282,9.86H9.86" fill="none" stroke="#db5791" stroke-linecap="round" stroke-linejoin="round" stroke-width="3"/>
</svg>
