<svg xmlns="http://www.w3.org/2000/svg" width="31.956" height="31.956" viewBox="0 0 31.956 31.956">
  <g id="Icon_feather-instagram" data-name="Icon feather-instagram" transform="translate(1.5 1.5)">
    <path id="Path_1" data-name="Path 1" d="M10.239,3H24.717a7.239,7.239,0,0,1,7.239,7.239V24.717a7.239,7.239,0,0,1-7.239,7.239H10.239A7.239,7.239,0,0,1,3,24.717V10.239A7.239,7.239,0,0,1,10.239,3Z" transform="translate(-3 -3)" fill="none" stroke="#000" stroke-linecap="round" stroke-linejoin="round" stroke-width="3"/>
    <path id="Path_2" data-name="Path 2" d="M24.408,17.23A6.2,6.2,0,1,1,19.18,12a6.2,6.2,0,0,1,5.228,5.228Z" transform="translate(-3.732 -3.722)" fill="none" stroke="#000" stroke-linecap="round" stroke-linejoin="round" stroke-width="3"/>
    <path id="Path_3" data-name="Path 3" d="M26.25,9.75h0" transform="translate(-3.809 -3.235)" fill="none" stroke="#000" stroke-linecap="round" stroke-linejoin="round" stroke-width="3"/>
  </g>
</svg>
