<svg xmlns="http://www.w3.org/2000/svg" width="30.328" height="26.537" viewBox="0 0 30.328 26.537">
  <path id="Icon_awesome-camera" data-name="Icon awesome-camera" d="M30.328,8.884v17.06a2.844,2.844,0,0,1-2.843,2.843H2.843A2.844,2.844,0,0,1,0,25.944V8.884A2.844,2.844,0,0,1,2.843,6.041H8.056l.729-1.949a2.839,2.839,0,0,1,2.66-1.842h7.434a2.839,2.839,0,0,1,2.66,1.842l.735,1.949h5.213A2.844,2.844,0,0,1,30.328,8.884Zm-8.056,8.53a7.108,7.108,0,1,0-7.108,7.108A7.114,7.114,0,0,0,22.272,17.414Zm-1.9,0A5.213,5.213,0,1,1,15.164,12.2,5.22,5.22,0,0,1,20.377,17.414Z" transform="translate(0 -2.25)" fill="#db5791" opacity="0.9"/>
</svg>
