<svg xmlns="http://www.w3.org/2000/svg" width="19.708" height="18.9" viewBox="0 0 19.708 18.9">
  <path id="Icon_awesome-star" data-name="Icon awesome-star" d="M9.78.621,7.5,5.244l-5.1.744A1.118,1.118,0,0,0,1.78,7.895l3.691,3.6L4.6,16.572a1.117,1.117,0,0,0,1.62,1.177l4.564-2.4,4.564,2.4a1.118,1.118,0,0,0,1.62-1.177l-.873-5.081,3.691-3.6a1.118,1.118,0,0,0-.618-1.907l-5.1-.744L11.784.621a1.118,1.118,0,0,0-2,0Z" transform="translate(-0.928 0.501)" fill="none" stroke="#000" stroke-width="1"/>
</svg>
